<svg width="411" height="140" viewBox="0 0 411 140" fill="none" xmlns="http://www.w3.org/2000/svg">
    <path d="M61.148 135V136H62.148V135H61.148ZM20.972 135H19.972V136H20.972V135ZM20.972 42.744H21.972V41.744H20.972V42.744ZM2 42.744L1.13622 42.2401L0.258963 43.744H2V42.744ZM24.134 4.79999V3.79999H23.5596L23.2702 4.29612L24.134 4.79999ZM61.148 4.79999H62.148V3.79999H61.148V4.79999ZM61.148 134H20.972V136H61.148V134ZM21.972 135V42.744H19.972V135H21.972ZM20.972 41.744H2V43.744H20.972V41.744ZM2.86378 43.2479L24.9978 5.30386L23.2702 4.29612L1.13622 42.2401L2.86378 43.2479ZM24.134 5.79999H61.148V3.79999H24.134V5.79999ZM60.148 4.79999V135H62.148V4.79999H60.148ZM199.112 123.282L198.405 122.575L198.401 122.579L199.112 123.282ZM94.952 123.282L95.6592 122.575L94.952 123.282ZM94.952 16.518L95.6547 17.2296L95.6592 17.2251L94.952 16.518ZM199.112 16.518L198.4 17.2207L198.409 17.2295L199.112 16.518ZM125.27 94.824L124.55 95.5181L124.563 95.5312L124.576 95.5438L125.27 94.824ZM168.608 94.824L169.315 95.5311H169.315L168.608 94.824ZM168.608 45.162L167.888 45.8561L167.901 45.8692L167.914 45.8818L168.608 45.162ZM125.27 45.162L125.977 45.8691L125.27 45.162ZM212.992 63.948V75.852H214.992V63.948H212.992ZM212.992 75.852C212.992 97.4283 208.057 112.923 198.405 122.575L199.819 123.989C210.007 113.801 214.992 97.6757 214.992 75.852H212.992ZM198.401 122.579C188.875 132.225 173.386 137.162 151.682 137.162V139.162C173.626 139.162 189.757 134.179 199.824 123.985L198.401 122.579ZM151.682 137.162H142.382V139.162H151.682V137.162ZM142.382 137.162C120.806 137.162 105.311 132.227 95.6592 122.575L94.2449 123.989C104.433 134.177 120.558 139.162 142.382 139.162V137.162ZM95.6592 122.575C86.0074 112.923 81.072 97.4283 81.072 75.852H79.072C79.072 97.6757 84.0567 113.801 94.2449 123.989L95.6592 122.575ZM81.072 75.852V63.948H79.072V75.852H81.072ZM81.072 63.948C81.072 42.2443 86.0089 26.7548 95.6547 17.2295L94.2494 15.8065C84.0552 25.8732 79.072 42.0037 79.072 63.948H81.072ZM95.6592 17.2251C105.311 7.57335 120.806 2.638 142.382 2.638V0.638C120.558 0.638 104.433 5.62264 94.2449 15.8109L95.6592 17.2251ZM142.382 2.638H151.682V0.638H142.382V2.638ZM151.682 2.638C173.386 2.638 188.875 7.57484 198.401 17.2206L199.824 15.8154C189.757 5.62115 173.626 0.638 151.682 0.638V2.638ZM198.409 17.2295C208.055 26.7548 212.992 42.2443 212.992 63.948H214.992C214.992 42.0037 210.009 25.8732 199.815 15.8065L198.409 17.2295ZM119.248 64.878V74.922H121.248V64.878H119.248ZM119.248 74.922C119.248 84.7483 120.91 91.7428 124.55 95.5181L125.99 94.1299C122.934 90.9612 121.248 84.6877 121.248 74.922H119.248ZM124.576 95.5438C128.351 99.1843 135.346 100.846 145.172 100.846V98.846C135.406 98.846 129.133 97.1597 125.964 94.1042L124.576 95.5438ZM145.172 100.846H148.892V98.846H145.172V100.846ZM148.892 100.846C153.84 100.846 158.021 100.424 161.415 99.5596C164.804 98.6963 167.471 97.3756 169.315 95.5311L167.901 94.1169C166.397 95.6204 164.104 96.8107 160.921 97.6214C157.743 98.431 153.74 98.846 148.892 98.846V100.846ZM169.315 95.5311C173.091 91.7554 174.816 84.7539 174.816 74.922H172.816C172.816 84.6821 171.069 90.9485 167.901 94.1169L169.315 95.5311ZM174.816 74.922V64.878H172.816V74.922H174.816ZM174.816 64.878C174.816 55.0528 173.094 48.0981 169.302 44.4422L167.914 45.8818C171.067 48.9219 172.816 55.1112 172.816 64.878H174.816ZM169.328 44.4679C165.672 40.6765 158.717 38.954 148.892 38.954V40.954C158.659 40.954 164.848 42.7035 167.888 45.8561L169.328 44.4679ZM148.892 38.954H145.172V40.954H148.892V38.954ZM145.172 38.954C135.34 38.954 128.339 40.6792 124.563 44.4549L125.977 45.8691C129.146 42.7008 135.412 40.954 145.172 40.954V38.954ZM124.563 44.4549C122.718 46.2994 121.398 48.9661 120.534 52.3552C119.67 55.7488 119.248 59.9302 119.248 64.878H121.248C121.248 60.0298 121.663 56.0272 122.473 52.8488C123.283 49.6659 124.474 47.3726 125.977 45.8691L124.563 44.4549Z" fill="#00F0FF"/>
    <path d="M89.148 135V136H90.148V135H89.148ZM48.972 135H47.972V136H48.972V135ZM48.972 42.744H49.972V41.744H48.972V42.744ZM30 42.744L29.1362 42.2401L28.259 43.744H30V42.744ZM52.134 4.79999V3.79999H51.5596L51.2702 4.29612L52.134 4.79999ZM89.148 4.79999H90.148V3.79999H89.148V4.79999ZM89.148 134H48.972V136H89.148V134ZM49.972 135V42.744H47.972V135H49.972ZM48.972 41.744H30V43.744H48.972V41.744ZM30.8638 43.2479L52.9978 5.30386L51.2702 4.29612L29.1362 42.2401L30.8638 43.2479ZM52.134 5.79999H89.148V3.79999H52.134V5.79999ZM88.148 4.79999V135H90.148V4.79999H88.148ZM227.112 123.282L226.405 122.575L226.401 122.579L227.112 123.282ZM122.952 123.282L123.659 122.575L122.952 123.282ZM122.952 16.518L123.655 17.2296L123.659 17.2251L122.952 16.518ZM227.112 16.518L226.4 17.2207L226.409 17.2295L227.112 16.518ZM153.27 94.824L152.55 95.5181L152.563 95.5312L152.576 95.5438L153.27 94.824ZM196.608 94.824L197.315 95.5311H197.315L196.608 94.824ZM196.608 45.162L195.888 45.8561L195.901 45.8692L195.914 45.8818L196.608 45.162ZM153.27 45.162L153.977 45.8691L153.27 45.162ZM240.992 63.948V75.852H242.992V63.948H240.992ZM240.992 75.852C240.992 97.4283 236.057 112.923 226.405 122.575L227.819 123.989C238.007 113.801 242.992 97.6757 242.992 75.852H240.992ZM226.401 122.579C216.875 132.225 201.386 137.162 179.682 137.162V139.162C201.626 139.162 217.757 134.179 227.824 123.985L226.401 122.579ZM179.682 137.162H170.382V139.162H179.682V137.162ZM170.382 137.162C148.806 137.162 133.311 132.227 123.659 122.575L122.245 123.989C132.433 134.177 148.558 139.162 170.382 139.162V137.162ZM123.659 122.575C114.007 112.923 109.072 97.4283 109.072 75.852H107.072C107.072 97.6757 112.057 113.801 122.245 123.989L123.659 122.575ZM109.072 75.852V63.948H107.072V75.852H109.072ZM109.072 63.948C109.072 42.2443 114.009 26.7548 123.655 17.2295L122.249 15.8065C112.055 25.8732 107.072 42.0037 107.072 63.948H109.072ZM123.659 17.2251C133.311 7.57335 148.806 2.638 170.382 2.638V0.638C148.558 0.638 132.433 5.62264 122.245 15.8109L123.659 17.2251ZM170.382 2.638H179.682V0.638H170.382V2.638ZM179.682 2.638C201.386 2.638 216.875 7.57484 226.401 17.2206L227.824 15.8154C217.757 5.62115 201.626 0.638 179.682 0.638V2.638ZM226.409 17.2295C236.055 26.7548 240.992 42.2443 240.992 63.948H242.992C242.992 42.0037 238.009 25.8732 227.815 15.8065L226.409 17.2295ZM147.248 64.878V74.922H149.248V64.878H147.248ZM147.248 74.922C147.248 84.7483 148.91 91.7428 152.55 95.5181L153.99 94.1299C150.934 90.9612 149.248 84.6877 149.248 74.922H147.248ZM152.576 95.5438C156.351 99.1843 163.346 100.846 173.172 100.846V98.846C163.406 98.846 157.133 97.1597 153.964 94.1042L152.576 95.5438ZM173.172 100.846H176.892V98.846H173.172V100.846ZM176.892 100.846C181.84 100.846 186.021 100.424 189.415 99.5596C192.804 98.6963 195.471 97.3756 197.315 95.5311L195.901 94.1169C194.397 95.6204 192.104 96.8107 188.921 97.6214C185.743 98.431 181.74 98.846 176.892 98.846V100.846ZM197.315 95.5311C201.091 91.7554 202.816 84.7539 202.816 74.922H200.816C200.816 84.6821 199.069 90.9485 195.901 94.1169L197.315 95.5311ZM202.816 74.922V64.878H200.816V74.922H202.816ZM202.816 64.878C202.816 55.0528 201.094 48.0981 197.302 44.4422L195.914 45.8818C199.067 48.9219 200.816 55.1112 200.816 64.878H202.816ZM197.328 44.4679C193.672 40.6765 186.717 38.954 176.892 38.954V40.954C186.659 40.954 192.848 42.7035 195.888 45.8561L197.328 44.4679ZM176.892 38.954H173.172V40.954H176.892V38.954ZM173.172 38.954C163.34 38.954 156.339 40.6792 152.563 44.4549L153.977 45.8691C157.146 42.7008 163.412 40.954 173.172 40.954V38.954ZM152.563 44.4549C150.718 46.2994 149.398 48.9661 148.534 52.3552C147.67 55.7488 147.248 59.9302 147.248 64.878H149.248C149.248 60.0298 149.663 56.0272 150.473 52.8488C151.283 49.6659 152.474 47.3726 153.977 45.8691L152.563 44.4549Z" fill="#00F0FF"/>
    <path d="M117.148 135V136H118.148V135H117.148ZM76.972 135H75.972V136H76.972V135ZM76.972 42.744H77.972V41.744H76.972V42.744ZM58 42.744L57.1362 42.2401L56.259 43.744H58V42.744ZM80.134 4.79999V3.79999H79.5596L79.2702 4.29612L80.134 4.79999ZM117.148 4.79999H118.148V3.79999H117.148V4.79999ZM117.148 134H76.972V136H117.148V134ZM77.972 135V42.744H75.972V135H77.972ZM76.972 41.744H58V43.744H76.972V41.744ZM58.8638 43.2479L80.9978 5.30386L79.2702 4.29612L57.1362 42.2401L58.8638 43.2479ZM80.134 5.79999H117.148V3.79999H80.134V5.79999ZM116.148 4.79999V135H118.148V4.79999H116.148ZM255.112 123.282L254.405 122.575L254.401 122.579L255.112 123.282ZM150.952 123.282L151.659 122.575L150.952 123.282ZM150.952 16.518L151.655 17.2296L151.659 17.2251L150.952 16.518ZM255.112 16.518L254.4 17.2207L254.409 17.2295L255.112 16.518ZM181.27 94.824L180.55 95.5181L180.563 95.5312L180.576 95.5438L181.27 94.824ZM224.608 94.824L225.315 95.5311H225.315L224.608 94.824ZM224.608 45.162L223.888 45.8561L223.901 45.8692L223.914 45.8818L224.608 45.162ZM181.27 45.162L181.977 45.8691L181.27 45.162ZM268.992 63.948V75.852H270.992V63.948H268.992ZM268.992 75.852C268.992 97.4283 264.057 112.923 254.405 122.575L255.819 123.989C266.007 113.801 270.992 97.6757 270.992 75.852H268.992ZM254.401 122.579C244.875 132.225 229.386 137.162 207.682 137.162V139.162C229.626 139.162 245.757 134.179 255.824 123.985L254.401 122.579ZM207.682 137.162H198.382V139.162H207.682V137.162ZM198.382 137.162C176.806 137.162 161.311 132.227 151.659 122.575L150.245 123.989C160.433 134.177 176.558 139.162 198.382 139.162V137.162ZM151.659 122.575C142.007 112.923 137.072 97.4283 137.072 75.852H135.072C135.072 97.6757 140.057 113.801 150.245 123.989L151.659 122.575ZM137.072 75.852V63.948H135.072V75.852H137.072ZM137.072 63.948C137.072 42.2443 142.009 26.7548 151.655 17.2295L150.249 15.8065C140.055 25.8732 135.072 42.0037 135.072 63.948H137.072ZM151.659 17.2251C161.311 7.57335 176.806 2.638 198.382 2.638V0.638C176.558 0.638 160.433 5.62264 150.245 15.8109L151.659 17.2251ZM198.382 2.638H207.682V0.638H198.382V2.638ZM207.682 2.638C229.386 2.638 244.875 7.57484 254.401 17.2206L255.824 15.8154C245.757 5.62115 229.626 0.638 207.682 0.638V2.638ZM254.409 17.2295C264.055 26.7548 268.992 42.2443 268.992 63.948H270.992C270.992 42.0037 266.009 25.8732 255.815 15.8065L254.409 17.2295ZM175.248 64.878V74.922H177.248V64.878H175.248ZM175.248 74.922C175.248 84.7483 176.91 91.7428 180.55 95.5181L181.99 94.1299C178.934 90.9612 177.248 84.6877 177.248 74.922H175.248ZM180.576 95.5438C184.351 99.1843 191.346 100.846 201.172 100.846V98.846C191.406 98.846 185.133 97.1597 181.964 94.1042L180.576 95.5438ZM201.172 100.846H204.892V98.846H201.172V100.846ZM204.892 100.846C209.84 100.846 214.021 100.424 217.415 99.5596C220.804 98.6963 223.471 97.3756 225.315 95.5311L223.901 94.1169C222.397 95.6204 220.104 96.8107 216.921 97.6214C213.743 98.431 209.74 98.846 204.892 98.846V100.846ZM225.315 95.5311C229.091 91.7554 230.816 84.7539 230.816 74.922H228.816C228.816 84.6821 227.069 90.9485 223.901 94.1169L225.315 95.5311ZM230.816 74.922V64.878H228.816V74.922H230.816ZM230.816 64.878C230.816 55.0528 229.094 48.0981 225.302 44.4422L223.914 45.8818C227.067 48.9219 228.816 55.1112 228.816 64.878H230.816ZM225.328 44.4679C221.672 40.6765 214.717 38.954 204.892 38.954V40.954C214.659 40.954 220.848 42.7035 223.888 45.8561L225.328 44.4679ZM204.892 38.954H201.172V40.954H204.892V38.954ZM201.172 38.954C191.34 38.954 184.339 40.6792 180.563 44.4549L181.977 45.8691C185.146 42.7008 191.412 40.954 201.172 40.954V38.954ZM180.563 44.4549C178.718 46.2994 177.398 48.9661 176.534 52.3552C175.67 55.7488 175.248 59.9302 175.248 64.878H177.248C177.248 60.0298 177.663 56.0272 178.473 52.8488C179.283 49.6659 180.474 47.3726 181.977 45.8691L180.563 44.4549Z" fill="#00F0FF"/>
    <path d="M145.148 135V136H146.148V135H145.148ZM104.972 135H103.972V136H104.972V135ZM104.972 42.744H105.972V41.744H104.972V42.744ZM86 42.744L85.1362 42.2401L84.259 43.744H86V42.744ZM108.134 4.79999V3.79999H107.56L107.27 4.29612L108.134 4.79999ZM145.148 4.79999H146.148V3.79999H145.148V4.79999ZM145.148 134H104.972V136H145.148V134ZM105.972 135V42.744H103.972V135H105.972ZM104.972 41.744H86V43.744H104.972V41.744ZM86.8638 43.2479L108.998 5.30386L107.27 4.29612L85.1362 42.2401L86.8638 43.2479ZM108.134 5.79999H145.148V3.79999H108.134V5.79999ZM144.148 4.79999V135H146.148V4.79999H144.148ZM283.112 123.282L282.405 122.575L282.401 122.579L283.112 123.282ZM178.952 123.282L179.659 122.575L178.952 123.282ZM178.952 16.518L179.655 17.2296L179.659 17.2251L178.952 16.518ZM283.112 16.518L282.4 17.2207L282.409 17.2295L283.112 16.518ZM209.27 94.824L208.55 95.5181L208.563 95.5312L208.576 95.5438L209.27 94.824ZM252.608 94.824L253.315 95.5311H253.315L252.608 94.824ZM252.608 45.162L251.888 45.8561L251.901 45.8692L251.914 45.8818L252.608 45.162ZM209.27 45.162L209.977 45.8691L209.27 45.162ZM296.992 63.948V75.852H298.992V63.948H296.992ZM296.992 75.852C296.992 97.4283 292.057 112.923 282.405 122.575L283.819 123.989C294.007 113.801 298.992 97.6757 298.992 75.852H296.992ZM282.401 122.579C272.875 132.225 257.386 137.162 235.682 137.162V139.162C257.626 139.162 273.757 134.179 283.824 123.985L282.401 122.579ZM235.682 137.162H226.382V139.162H235.682V137.162ZM226.382 137.162C204.806 137.162 189.311 132.227 179.659 122.575L178.245 123.989C188.433 134.177 204.558 139.162 226.382 139.162V137.162ZM179.659 122.575C170.007 112.923 165.072 97.4283 165.072 75.852H163.072C163.072 97.6757 168.057 113.801 178.245 123.989L179.659 122.575ZM165.072 75.852V63.948H163.072V75.852H165.072ZM165.072 63.948C165.072 42.2443 170.009 26.7548 179.655 17.2295L178.249 15.8065C168.055 25.8732 163.072 42.0037 163.072 63.948H165.072ZM179.659 17.2251C189.311 7.57335 204.806 2.638 226.382 2.638V0.638C204.558 0.638 188.433 5.62264 178.245 15.8109L179.659 17.2251ZM226.382 2.638H235.682V0.638H226.382V2.638ZM235.682 2.638C257.386 2.638 272.875 7.57484 282.401 17.2206L283.824 15.8154C273.757 5.62115 257.626 0.638 235.682 0.638V2.638ZM282.409 17.2295C292.055 26.7548 296.992 42.2443 296.992 63.948H298.992C298.992 42.0037 294.009 25.8732 283.815 15.8065L282.409 17.2295ZM203.248 64.878V74.922H205.248V64.878H203.248ZM203.248 74.922C203.248 84.7483 204.91 91.7428 208.55 95.5181L209.99 94.1299C206.934 90.9612 205.248 84.6877 205.248 74.922H203.248ZM208.576 95.5438C212.351 99.1843 219.346 100.846 229.172 100.846V98.846C219.406 98.846 213.133 97.1597 209.964 94.1042L208.576 95.5438ZM229.172 100.846H232.892V98.846H229.172V100.846ZM232.892 100.846C237.84 100.846 242.021 100.424 245.415 99.5596C248.804 98.6963 251.471 97.3756 253.315 95.5311L251.901 94.1169C250.397 95.6204 248.104 96.8107 244.921 97.6214C241.743 98.431 237.74 98.846 232.892 98.846V100.846ZM253.315 95.5311C257.091 91.7554 258.816 84.7539 258.816 74.922H256.816C256.816 84.6821 255.069 90.9485 251.901 94.1169L253.315 95.5311ZM258.816 74.922V64.878H256.816V74.922H258.816ZM258.816 64.878C258.816 55.0528 257.094 48.0981 253.302 44.4422L251.914 45.8818C255.067 48.9219 256.816 55.1112 256.816 64.878H258.816ZM253.328 44.4679C249.672 40.6765 242.717 38.954 232.892 38.954V40.954C242.659 40.954 248.848 42.7035 251.888 45.8561L253.328 44.4679ZM232.892 38.954H229.172V40.954H232.892V38.954ZM229.172 38.954C219.34 38.954 212.339 40.6792 208.563 44.4549L209.977 45.8691C213.146 42.7008 219.412 40.954 229.172 40.954V38.954ZM208.563 44.4549C206.718 46.2994 205.398 48.9661 204.534 52.3552C203.67 55.7488 203.248 59.9302 203.248 64.878H205.248C205.248 60.0298 205.663 56.0272 206.473 52.8488C207.283 49.6659 208.474 47.3726 209.977 45.8691L208.563 44.4549Z" fill="#00F0FF"/>
    <path d="M173.148 135V136H174.148V135H173.148ZM132.972 135H131.972V136H132.972V135ZM132.972 42.744H133.972V41.744H132.972V42.744ZM114 42.744L113.136 42.2401L112.259 43.744H114V42.744ZM136.134 4.79999V3.79999H135.56L135.27 4.29612L136.134 4.79999ZM173.148 4.79999H174.148V3.79999H173.148V4.79999ZM173.148 134H132.972V136H173.148V134ZM133.972 135V42.744H131.972V135H133.972ZM132.972 41.744H114V43.744H132.972V41.744ZM114.864 43.2479L136.998 5.30386L135.27 4.29612L113.136 42.2401L114.864 43.2479ZM136.134 5.79999H173.148V3.79999H136.134V5.79999ZM172.148 4.79999V135H174.148V4.79999H172.148ZM311.112 123.282L310.405 122.575L310.401 122.579L311.112 123.282ZM206.952 123.282L207.659 122.575L206.952 123.282ZM206.952 16.518L207.655 17.2296L207.659 17.2251L206.952 16.518ZM311.112 16.518L310.4 17.2207L310.409 17.2295L311.112 16.518ZM237.27 94.824L236.55 95.5181L236.563 95.5312L236.576 95.5438L237.27 94.824ZM280.608 94.824L281.315 95.5311H281.315L280.608 94.824ZM280.608 45.162L279.888 45.8561L279.901 45.8692L279.914 45.8818L280.608 45.162ZM237.27 45.162L237.977 45.8691L237.27 45.162ZM324.992 63.948V75.852H326.992V63.948H324.992ZM324.992 75.852C324.992 97.4283 320.057 112.923 310.405 122.575L311.819 123.989C322.007 113.801 326.992 97.6757 326.992 75.852H324.992ZM310.401 122.579C300.875 132.225 285.386 137.162 263.682 137.162V139.162C285.626 139.162 301.757 134.179 311.824 123.985L310.401 122.579ZM263.682 137.162H254.382V139.162H263.682V137.162ZM254.382 137.162C232.806 137.162 217.311 132.227 207.659 122.575L206.245 123.989C216.433 134.177 232.558 139.162 254.382 139.162V137.162ZM207.659 122.575C198.007 112.923 193.072 97.4283 193.072 75.852H191.072C191.072 97.6757 196.057 113.801 206.245 123.989L207.659 122.575ZM193.072 75.852V63.948H191.072V75.852H193.072ZM193.072 63.948C193.072 42.2443 198.009 26.7548 207.655 17.2295L206.249 15.8065C196.055 25.8732 191.072 42.0037 191.072 63.948H193.072ZM207.659 17.2251C217.311 7.57335 232.806 2.638 254.382 2.638V0.638C232.558 0.638 216.433 5.62264 206.245 15.8109L207.659 17.2251ZM254.382 2.638H263.682V0.638H254.382V2.638ZM263.682 2.638C285.386 2.638 300.875 7.57484 310.401 17.2206L311.824 15.8154C301.757 5.62115 285.626 0.638 263.682 0.638V2.638ZM310.409 17.2295C320.055 26.7548 324.992 42.2443 324.992 63.948H326.992C326.992 42.0037 322.009 25.8732 311.815 15.8065L310.409 17.2295ZM231.248 64.878V74.922H233.248V64.878H231.248ZM231.248 74.922C231.248 84.7483 232.91 91.7428 236.55 95.5181L237.99 94.1299C234.934 90.9612 233.248 84.6877 233.248 74.922H231.248ZM236.576 95.5438C240.351 99.1843 247.346 100.846 257.172 100.846V98.846C247.406 98.846 241.133 97.1597 237.964 94.1042L236.576 95.5438ZM257.172 100.846H260.892V98.846H257.172V100.846ZM260.892 100.846C265.84 100.846 270.021 100.424 273.415 99.5596C276.804 98.6963 279.471 97.3756 281.315 95.5311L279.901 94.1169C278.397 95.6204 276.104 96.8107 272.921 97.6214C269.743 98.431 265.74 98.846 260.892 98.846V100.846ZM281.315 95.5311C285.091 91.7554 286.816 84.7539 286.816 74.922H284.816C284.816 84.6821 283.069 90.9485 279.901 94.1169L281.315 95.5311ZM286.816 74.922V64.878H284.816V74.922H286.816ZM286.816 64.878C286.816 55.0528 285.094 48.0981 281.302 44.4422L279.914 45.8818C283.067 48.9219 284.816 55.1112 284.816 64.878H286.816ZM281.328 44.4679C277.672 40.6765 270.717 38.954 260.892 38.954V40.954C270.659 40.954 276.848 42.7035 279.888 45.8561L281.328 44.4679ZM260.892 38.954H257.172V40.954H260.892V38.954ZM257.172 38.954C247.34 38.954 240.339 40.6792 236.563 44.4549L237.977 45.8691C241.146 42.7008 247.412 40.954 257.172 40.954V38.954ZM236.563 44.4549C234.718 46.2994 233.398 48.9661 232.534 52.3552C231.67 55.7488 231.248 59.9302 231.248 64.878H233.248C233.248 60.0298 233.663 56.0272 234.473 52.8488C235.283 49.6659 236.474 47.3726 237.977 45.8691L236.563 44.4549Z" fill="#00F0FF"/>
    <path d="M201.148 135V136H202.148V135H201.148ZM160.972 135H159.972V136H160.972V135ZM160.972 42.744H161.972V41.744H160.972V42.744ZM142 42.744L141.136 42.2401L140.259 43.744H142V42.744ZM164.134 4.79999V3.79999H163.56L163.27 4.29612L164.134 4.79999ZM201.148 4.79999H202.148V3.79999H201.148V4.79999ZM201.148 134H160.972V136H201.148V134ZM161.972 135V42.744H159.972V135H161.972ZM160.972 41.744H142V43.744H160.972V41.744ZM142.864 43.2479L164.998 5.30386L163.27 4.29612L141.136 42.2401L142.864 43.2479ZM164.134 5.79999H201.148V3.79999H164.134V5.79999ZM200.148 4.79999V135H202.148V4.79999H200.148ZM339.112 123.282L338.405 122.575L338.401 122.579L339.112 123.282ZM234.952 123.282L235.659 122.575L234.952 123.282ZM234.952 16.518L235.655 17.2296L235.659 17.2251L234.952 16.518ZM339.112 16.518L338.4 17.2207L338.409 17.2295L339.112 16.518ZM265.27 94.824L264.55 95.5181L264.563 95.5312L264.576 95.5438L265.27 94.824ZM308.608 94.824L309.315 95.5311H309.315L308.608 94.824ZM308.608 45.162L307.888 45.8561L307.901 45.8692L307.914 45.8818L308.608 45.162ZM265.27 45.162L265.977 45.8691L265.27 45.162ZM352.992 63.948V75.852H354.992V63.948H352.992ZM352.992 75.852C352.992 97.4283 348.057 112.923 338.405 122.575L339.819 123.989C350.007 113.801 354.992 97.6757 354.992 75.852H352.992ZM338.401 122.579C328.875 132.225 313.386 137.162 291.682 137.162V139.162C313.626 139.162 329.757 134.179 339.824 123.985L338.401 122.579ZM291.682 137.162H282.382V139.162H291.682V137.162ZM282.382 137.162C260.806 137.162 245.311 132.227 235.659 122.575L234.245 123.989C244.433 134.177 260.558 139.162 282.382 139.162V137.162ZM235.659 122.575C226.007 112.923 221.072 97.4283 221.072 75.852H219.072C219.072 97.6757 224.057 113.801 234.245 123.989L235.659 122.575ZM221.072 75.852V63.948H219.072V75.852H221.072ZM221.072 63.948C221.072 42.2443 226.009 26.7548 235.655 17.2295L234.249 15.8065C224.055 25.8732 219.072 42.0037 219.072 63.948H221.072ZM235.659 17.2251C245.311 7.57335 260.806 2.638 282.382 2.638V0.638C260.558 0.638 244.433 5.62264 234.245 15.8109L235.659 17.2251ZM282.382 2.638H291.682V0.638H282.382V2.638ZM291.682 2.638C313.386 2.638 328.875 7.57484 338.401 17.2206L339.824 15.8154C329.757 5.62115 313.626 0.638 291.682 0.638V2.638ZM338.409 17.2295C348.055 26.7548 352.992 42.2443 352.992 63.948H354.992C354.992 42.0037 350.009 25.8732 339.815 15.8065L338.409 17.2295ZM259.248 64.878V74.922H261.248V64.878H259.248ZM259.248 74.922C259.248 84.7483 260.91 91.7428 264.55 95.5181L265.99 94.1299C262.934 90.9612 261.248 84.6877 261.248 74.922H259.248ZM264.576 95.5438C268.351 99.1843 275.346 100.846 285.172 100.846V98.846C275.406 98.846 269.133 97.1597 265.964 94.1042L264.576 95.5438ZM285.172 100.846H288.892V98.846H285.172V100.846ZM288.892 100.846C293.84 100.846 298.021 100.424 301.415 99.5596C304.804 98.6963 307.471 97.3756 309.315 95.5311L307.901 94.1169C306.397 95.6204 304.104 96.8107 300.921 97.6214C297.743 98.431 293.74 98.846 288.892 98.846V100.846ZM309.315 95.5311C313.091 91.7554 314.816 84.7539 314.816 74.922H312.816C312.816 84.6821 311.069 90.9485 307.901 94.1169L309.315 95.5311ZM314.816 74.922V64.878H312.816V74.922H314.816ZM314.816 64.878C314.816 55.0528 313.094 48.0981 309.302 44.4422L307.914 45.8818C311.067 48.9219 312.816 55.1112 312.816 64.878H314.816ZM309.328 44.4679C305.672 40.6765 298.717 38.954 288.892 38.954V40.954C298.659 40.954 304.848 42.7035 307.888 45.8561L309.328 44.4679ZM288.892 38.954H285.172V40.954H288.892V38.954ZM285.172 38.954C275.34 38.954 268.339 40.6792 264.563 44.4549L265.977 45.8691C269.146 42.7008 275.412 40.954 285.172 40.954V38.954ZM264.563 44.4549C262.718 46.2994 261.398 48.9661 260.534 52.3552C259.67 55.7488 259.248 59.9302 259.248 64.878H261.248C261.248 60.0298 261.663 56.0272 262.473 52.8488C263.283 49.6659 264.474 47.3726 265.977 45.8691L264.563 44.4549Z" fill="#00F0FF"/>
    <path d="M229.148 135V136H230.148V135H229.148ZM188.972 135H187.972V136H188.972V135ZM188.972 42.744H189.972V41.744H188.972V42.744ZM170 42.744L169.136 42.2401L168.259 43.744H170V42.744ZM192.134 4.79999V3.79999H191.56L191.27 4.29612L192.134 4.79999ZM229.148 4.79999H230.148V3.79999H229.148V4.79999ZM229.148 134H188.972V136H229.148V134ZM189.972 135V42.744H187.972V135H189.972ZM188.972 41.744H170V43.744H188.972V41.744ZM170.864 43.2479L192.998 5.30386L191.27 4.29612L169.136 42.2401L170.864 43.2479ZM192.134 5.79999H229.148V3.79999H192.134V5.79999ZM228.148 4.79999V135H230.148V4.79999H228.148ZM367.112 123.282L366.405 122.575L366.401 122.579L367.112 123.282ZM262.952 123.282L263.659 122.575L262.952 123.282ZM262.952 16.518L263.655 17.2296L263.659 17.2251L262.952 16.518ZM367.112 16.518L366.4 17.2207L366.409 17.2295L367.112 16.518ZM293.27 94.824L292.55 95.5181L292.563 95.5312L292.576 95.5438L293.27 94.824ZM336.608 94.824L337.315 95.5311H337.315L336.608 94.824ZM336.608 45.162L335.888 45.8561L335.901 45.8692L335.914 45.8818L336.608 45.162ZM293.27 45.162L293.977 45.8691L293.27 45.162ZM380.992 63.948V75.852H382.992V63.948H380.992ZM380.992 75.852C380.992 97.4283 376.057 112.923 366.405 122.575L367.819 123.989C378.007 113.801 382.992 97.6757 382.992 75.852H380.992ZM366.401 122.579C356.875 132.225 341.386 137.162 319.682 137.162V139.162C341.626 139.162 357.757 134.179 367.824 123.985L366.401 122.579ZM319.682 137.162H310.382V139.162H319.682V137.162ZM310.382 137.162C288.806 137.162 273.311 132.227 263.659 122.575L262.245 123.989C272.433 134.177 288.558 139.162 310.382 139.162V137.162ZM263.659 122.575C254.007 112.923 249.072 97.4283 249.072 75.852H247.072C247.072 97.6757 252.057 113.801 262.245 123.989L263.659 122.575ZM249.072 75.852V63.948H247.072V75.852H249.072ZM249.072 63.948C249.072 42.2443 254.009 26.7548 263.655 17.2295L262.249 15.8065C252.055 25.8732 247.072 42.0037 247.072 63.948H249.072ZM263.659 17.2251C273.311 7.57335 288.806 2.638 310.382 2.638V0.638C288.558 0.638 272.433 5.62264 262.245 15.8109L263.659 17.2251ZM310.382 2.638H319.682V0.638H310.382V2.638ZM319.682 2.638C341.386 2.638 356.875 7.57484 366.401 17.2206L367.824 15.8154C357.757 5.62115 341.626 0.638 319.682 0.638V2.638ZM366.409 17.2295C376.055 26.7548 380.992 42.2443 380.992 63.948H382.992C382.992 42.0037 378.009 25.8732 367.815 15.8065L366.409 17.2295ZM287.248 64.878V74.922H289.248V64.878H287.248ZM287.248 74.922C287.248 84.7483 288.91 91.7428 292.55 95.5181L293.99 94.1299C290.934 90.9612 289.248 84.6877 289.248 74.922H287.248ZM292.576 95.5438C296.351 99.1843 303.346 100.846 313.172 100.846V98.846C303.406 98.846 297.133 97.1597 293.964 94.1042L292.576 95.5438ZM313.172 100.846H316.892V98.846H313.172V100.846ZM316.892 100.846C321.84 100.846 326.021 100.424 329.415 99.5596C332.804 98.6963 335.471 97.3756 337.315 95.5311L335.901 94.1169C334.397 95.6204 332.104 96.8107 328.921 97.6214C325.743 98.431 321.74 98.846 316.892 98.846V100.846ZM337.315 95.5311C341.091 91.7554 342.816 84.7539 342.816 74.922H340.816C340.816 84.6821 339.069 90.9485 335.901 94.1169L337.315 95.5311ZM342.816 74.922V64.878H340.816V74.922H342.816ZM342.816 64.878C342.816 55.0528 341.094 48.0981 337.302 44.4422L335.914 45.8818C339.067 48.9219 340.816 55.1112 340.816 64.878H342.816ZM337.328 44.4679C333.672 40.6765 326.717 38.954 316.892 38.954V40.954C326.659 40.954 332.848 42.7035 335.888 45.8561L337.328 44.4679ZM316.892 38.954H313.172V40.954H316.892V38.954ZM313.172 38.954C303.34 38.954 296.339 40.6792 292.563 44.4549L293.977 45.8691C297.146 42.7008 303.412 40.954 313.172 40.954V38.954ZM292.563 44.4549C290.718 46.2994 289.398 48.9661 288.534 52.3552C287.67 55.7488 287.248 59.9302 287.248 64.878H289.248C289.248 60.0298 289.663 56.0272 290.473 52.8488C291.283 49.6659 292.474 47.3726 293.977 45.8691L292.563 44.4549Z" fill="#00F0FF"/>
    <path d="M257.148 135V136H258.148V135H257.148ZM216.972 135H215.972V136H216.972V135ZM216.972 42.744H217.972V41.744H216.972V42.744ZM198 42.744L197.136 42.2401L196.259 43.744H198V42.744ZM220.134 4.79999V3.79999H219.56L219.27 4.29612L220.134 4.79999ZM257.148 4.79999H258.148V3.79999H257.148V4.79999ZM257.148 134H216.972V136H257.148V134ZM217.972 135V42.744H215.972V135H217.972ZM216.972 41.744H198V43.744H216.972V41.744ZM198.864 43.2479L220.998 5.30386L219.27 4.29612L197.136 42.2401L198.864 43.2479ZM220.134 5.79999H257.148V3.79999H220.134V5.79999ZM256.148 4.79999V135H258.148V4.79999H256.148ZM395.112 123.282L394.405 122.575L394.401 122.579L395.112 123.282ZM290.952 123.282L291.659 122.575L290.952 123.282ZM290.952 16.518L291.655 17.2296L291.659 17.2251L290.952 16.518ZM395.112 16.518L394.4 17.2207L394.409 17.2295L395.112 16.518ZM321.27 94.824L320.55 95.5181L320.563 95.5312L320.576 95.5438L321.27 94.824ZM364.608 94.824L365.315 95.5311H365.315L364.608 94.824ZM364.608 45.162L363.888 45.8561L363.901 45.8692L363.914 45.8818L364.608 45.162ZM321.27 45.162L321.977 45.8691L321.27 45.162ZM408.992 63.948V75.852H410.992V63.948H408.992ZM408.992 75.852C408.992 97.4283 404.057 112.923 394.405 122.575L395.819 123.989C406.007 113.801 410.992 97.6757 410.992 75.852H408.992ZM394.401 122.579C384.875 132.225 369.386 137.162 347.682 137.162V139.162C369.626 139.162 385.757 134.179 395.824 123.985L394.401 122.579ZM347.682 137.162H338.382V139.162H347.682V137.162ZM338.382 137.162C316.806 137.162 301.311 132.227 291.659 122.575L290.245 123.989C300.433 134.177 316.558 139.162 338.382 139.162V137.162ZM291.659 122.575C282.007 112.923 277.072 97.4283 277.072 75.852H275.072C275.072 97.6757 280.057 113.801 290.245 123.989L291.659 122.575ZM277.072 75.852V63.948H275.072V75.852H277.072ZM277.072 63.948C277.072 42.2443 282.009 26.7548 291.655 17.2295L290.249 15.8065C280.055 25.8732 275.072 42.0037 275.072 63.948H277.072ZM291.659 17.2251C301.311 7.57335 316.806 2.638 338.382 2.638V0.638C316.558 0.638 300.433 5.62264 290.245 15.8109L291.659 17.2251ZM338.382 2.638H347.682V0.638H338.382V2.638ZM347.682 2.638C369.386 2.638 384.875 7.57484 394.401 17.2206L395.824 15.8154C385.757 5.62115 369.626 0.638 347.682 0.638V2.638ZM394.409 17.2295C404.055 26.7548 408.992 42.2443 408.992 63.948H410.992C410.992 42.0037 406.009 25.8732 395.815 15.8065L394.409 17.2295ZM315.248 64.878V74.922H317.248V64.878H315.248ZM315.248 74.922C315.248 84.7483 316.91 91.7428 320.55 95.5181L321.99 94.1299C318.934 90.9612 317.248 84.6877 317.248 74.922H315.248ZM320.576 95.5438C324.351 99.1843 331.346 100.846 341.172 100.846V98.846C331.406 98.846 325.133 97.1597 321.964 94.1042L320.576 95.5438ZM341.172 100.846H344.892V98.846H341.172V100.846ZM344.892 100.846C349.84 100.846 354.021 100.424 357.415 99.5596C360.804 98.6963 363.471 97.3756 365.315 95.5311L363.901 94.1169C362.397 95.6204 360.104 96.8107 356.921 97.6214C353.743 98.431 349.74 98.846 344.892 98.846V100.846ZM365.315 95.5311C369.091 91.7554 370.816 84.7539 370.816 74.922H368.816C368.816 84.6821 367.069 90.9485 363.901 94.1169L365.315 95.5311ZM370.816 74.922V64.878H368.816V74.922H370.816ZM370.816 64.878C370.816 55.0528 369.094 48.0981 365.302 44.4422L363.914 45.8818C367.067 48.9219 368.816 55.1112 368.816 64.878H370.816ZM365.328 44.4679C361.672 40.6765 354.717 38.954 344.892 38.954V40.954C354.659 40.954 360.848 42.7035 363.888 45.8561L365.328 44.4679ZM344.892 38.954H341.172V40.954H344.892V38.954ZM341.172 38.954C331.34 38.954 324.339 40.6792 320.563 44.4549L321.977 45.8691C325.146 42.7008 331.412 40.954 341.172 40.954V38.954ZM320.563 44.4549C318.718 46.2994 317.398 48.9661 316.534 52.3552C315.67 55.7488 315.248 59.9302 315.248 64.878H317.248C317.248 60.0298 317.663 56.0272 318.473 52.8488C319.283 49.6659 320.474 47.3726 321.977 45.8691L320.563 44.4549Z" fill="#00F0FF"/>
</svg>
