<svg width="267" height="268" viewBox="0 0 267 268" fill="none" xmlns="http://www.w3.org/2000/svg">
    <path d="M12.266 0H10.0029V10.0403H0V12.3119H10.0029V22.3295H12.266V12.3119H22.2462V10.0403H12.266V0Z" fill="#00F0FF"/>
    <path d="M93.8506 0H91.5875V10.0403H81.5846V12.3119H91.5875V22.3295H93.8506V12.3119H103.831V10.0403H93.8506V0Z" fill="#00F0FF"/>
    <path d="M175.435 0H173.172V10.0403H163.169V12.3119H173.172V22.3295H175.435V12.3119H185.415V10.0403H175.435V0Z" fill="#00F0FF"/>
    <path d="M257.02 10.0403V0H254.757V10.0403H244.754V12.3119H254.757V22.3295H257.02V12.3119H267V10.0403H257.02Z" fill="#00F0FF"/>
    <path d="M12.266 81.8901H10.0029V91.9305H0V94.2021H10.0029V104.22H12.266V94.2021H22.2462V91.9305H12.266V81.8901Z" fill="#00F0FF"/>
    <path d="M93.8506 81.8901H91.5875V91.9305H81.5846V94.2021H91.5875V104.22H93.8506V94.2021H103.831V91.9305H93.8506V81.8901Z" fill="#00F0FF"/>
    <path d="M175.435 81.8901H173.172V91.9305H163.169V94.2021H173.172V104.22H175.435V94.2021H185.415V91.9305H175.435V81.8901Z" fill="#00F0FF"/>
    <path d="M257.02 81.8901H254.757V91.9305H244.754V94.2021H254.757V104.22H257.02V94.2021H267V91.9305H257.02V81.8901Z" fill="#00F0FF"/>
    <path d="M12.266 163.78H10.0029V173.821H0V176.092H10.0029V186.11H12.266V176.092H22.2462V173.821H12.266V163.78Z" fill="#00F0FF"/>
    <path d="M93.8506 163.78H91.5875V173.821H81.5846V176.092H91.5875V186.11H93.8506V176.092H103.831V173.821H93.8506V163.78Z" fill="#00F0FF"/>
    <path d="M175.435 163.78H173.172V173.821H163.169V176.092H173.172V186.11H175.435V176.092H185.415V173.821H175.435V163.78Z" fill="#00F0FF"/>
    <path d="M257.02 163.78H254.757V173.821H244.754V176.092H254.757V186.11H257.02V176.092H267V173.821H257.02V163.78Z" fill="#00F0FF"/>
    <path d="M12.266 245.67H10.0029V255.711H0V257.982H10.0029V268H12.266V257.982H22.2462V255.711H12.266V245.67Z" fill="#00F0FF"/>
    <path d="M93.8506 245.67H91.5875V255.711H81.5846V257.982H91.5875V268H93.8506V257.982H103.831V255.711H93.8506V245.67Z" fill="#00F0FF"/>
    <path d="M175.435 245.67H173.172V255.711H163.169V257.982H173.172V268H175.435V257.982H185.415V255.711H175.435V245.67Z" fill="#00F0FF"/>
    <path d="M257.02 245.67H254.757V255.711H244.754V257.982H254.757V268H257.02V257.982H267V255.711H257.02V245.67Z" fill="#00F0FF"/>
</svg>
