<svg width="215" height="215" viewBox="0 0 215 215" fill="none" xmlns="http://www.w3.org/2000/svg">
    <path d="M149.725 139.693C144.704 139.558 139.75 139.221 134.83 138.58C134.897 138.614 134.965 138.648 135.032 138.682C139.413 140.131 144.468 140.266 149.725 139.693Z" fill="#FF65FF"/>
    <path d="M175.269 123.006C173.954 123.006 172.708 123.04 171.36 123.006C167.99 122.871 164.62 123.208 161.081 123.546C159.026 123.748 156.936 123.916 154.813 124.018C155.824 124.152 156.835 124.321 157.846 124.422C163.912 124.253 170.045 123.613 175.269 123.006Z" fill="#FF65FF"/>
    <path d="M87.9208 12.3037C92.4028 12.9779 96.9521 13.551 101.603 13.9892C97.0532 13.3824 92.5039 12.8431 87.9208 12.3037Z" fill="#FF65FF"/>
    <path d="M123.777 0.404515C126.641 0.404515 129.539 0.337096 132.471 0.235967C133.044 0.168548 133.65 0.0674192 134.223 0H111.611C115.621 0.235967 119.665 0.404515 123.777 0.404515Z" fill="#FF65FF"/>
    <path d="M141.368 5.02273C146.793 4.41596 152.589 3.91031 158.554 3.47209C177.594 2.05628 197.072 1.65177 214.933 1.68548V0.80903C197.038 0.77532 177.56 1.21355 158.487 2.59564C152.488 3.03386 146.692 3.57322 141.334 4.17999L138.368 4.14628C118.351 3.91031 97.8284 3.64064 77.3393 0H72.79C94.7954 4.44967 116.868 4.71934 138.368 4.98902L141.368 5.02273Z" fill="#FF65FF"/>
    <path d="M172.101 7.92178C166.406 8.09033 160.778 8.32629 155.454 8.59597C127.517 10.214 99.8503 5.96662 73.0595 1.88776C69.0157 1.28099 64.9044 0.64051 60.7931 0.0337376H55.1991C55.2665 0.0674471 55.3002 0.0674471 55.3676 0.101157C61.1638 0.943896 67.1622 1.85405 72.9248 2.7305C95.739 6.2363 119.194 9.80952 142.918 9.80952C147.096 9.80952 151.275 9.70839 155.487 9.43871C160.812 9.16903 166.44 8.93307 172.135 8.76452C186.929 8.32629 201.621 8.22517 214.966 8.32629V7.44985C201.588 7.38243 186.895 7.44984 172.101 7.92178Z" fill="#FF65FF"/>
    <path d="M45.4263 0.977578C44.2468 0.640482 43.1348 0.303386 42.0564 0H38.9561C40.8769 0.539353 42.9326 1.11242 45.1567 1.78661C52.7053 4.82047 60.6583 7.31498 68.8808 9.37126C71.2735 9.60723 73.6998 9.87691 76.0587 10.1129C65.3088 7.85433 55.0642 4.85418 45.4263 0.977578Z" fill="#FF65FF"/>
    <path d="M125.158 15.9786C133.987 15.9786 143.086 15.5404 152.421 14.6977L165.496 14.7314C181.2 14.7988 197.847 14.8662 214.933 15.1022V14.2932C197.847 14.0572 181.2 13.9561 165.496 13.8887L152.387 13.8549C139.009 15.0685 126.203 15.3045 113.835 14.7988C116.228 15.1359 118.654 15.5067 121.047 15.8775C122.429 15.9112 123.777 15.9786 125.158 15.9786Z" fill="#FF65FF"/>
    <path d="M87.9208 12.3037C83.7084 11.8318 79.496 11.3601 75.2837 10.8881C87.7186 13.5849 100.794 15.203 114.577 15.7423C110.23 15.1018 105.916 14.5288 101.603 13.9557C96.9858 13.5512 92.4028 12.9779 87.9208 12.3037Z" fill="#FF65FF"/>
    <path d="M27.6669 5.59563C31.3401 6.03385 35.1144 6.57321 39.2931 7.21369L46.8417 7.9553C56.4459 8.89917 65.9154 9.84304 75.3174 10.8543C79.5298 11.2925 83.7422 11.7645 87.9545 12.2701C92.5376 12.8095 97.087 13.3488 101.636 13.9556C105.95 14.5287 110.297 15.1017 114.61 15.7422C129.101 17.8322 143.659 20.3604 158.621 23.6303C164.013 24.3044 168.9 24.8775 173.82 25.3494C179.38 25.8888 185.345 26.2933 191.613 26.2933C199.027 26.2933 206.878 25.6528 214.933 23.8999V23.1246C200.139 26.327 186.019 25.6865 173.887 24.5404C168.967 24.0685 164.081 23.4954 158.756 22.8212C145.951 20.0233 133.448 17.7985 121.047 15.9108C118.621 15.54 116.228 15.1692 113.835 14.8321C101.232 12.978 88.6959 11.495 76.0587 10.1129C73.6661 9.8432 71.2735 9.60723 68.8808 9.37126C61.6356 8.62965 54.3229 7.88788 46.9428 7.14627L39.3942 6.40466C35.2492 5.73047 31.4412 5.19111 27.768 4.7866C17.7594 3.57305 8.62698 3.23596 0.033727 3.60676V4.4495C8.59329 4.0787 17.692 4.41579 27.6669 5.59563Z" fill="#FF65FF"/>
    <path d="M18.8715 11.1914C22.7132 11.3262 26.656 11.5622 30.9021 11.933C44.2132 13.7196 57.7602 15.2702 70.9028 16.7872C103.726 20.5626 137.661 24.5066 170.281 31.9565C172.708 32.0913 175.201 32.1587 177.83 32.1587C179.751 32.1587 181.773 32.125 183.862 32.0576C189.422 31.8553 194.848 31.4508 200.577 31.0126C203.98 30.7429 207.519 30.4732 211.057 30.271L210.99 29.4282C207.451 29.6642 203.913 29.9339 200.476 30.1699C194.747 30.6081 189.355 31.0463 183.795 31.2149C178.875 31.3834 174.46 31.3497 170.349 31.1137C137.762 23.6302 103.793 19.7199 70.9365 15.9444C57.8276 14.4275 44.2469 12.8768 30.9358 11.0902C26.7234 10.7194 22.7469 10.4835 18.9052 10.3486C12.3002 10.1464 6.03216 10.2475 0.033727 10.6857V11.5285C6.03216 11.0902 12.2665 10.9891 18.8715 11.1914Z" fill="#FF65FF"/>
    <path d="M15.9734 18.3383C19.7814 18.2709 23.6905 18.3046 27.6669 18.4057C28.1387 18.4057 28.6442 18.4057 29.116 18.4057C65.5784 18.4057 102.378 26.7657 137.998 34.8223C147.063 36.8786 156.397 39.0023 165.496 40.9237C168.327 41.0923 171.056 41.3956 173.685 41.6653C177.156 42.0361 180.425 42.4069 183.761 42.4743C184.098 42.4743 184.435 42.4743 184.806 42.4743C191.377 42.4743 197.005 41.2271 202.868 38.4292L202.498 37.6539C196.432 40.5192 190.669 41.7327 183.761 41.5979C180.458 41.5305 177.19 41.1597 173.752 40.7889C171.124 40.5192 168.394 40.2158 165.597 40.0473C156.566 38.1595 147.197 36.0358 138.166 33.9795C102.58 25.9229 65.7132 17.563 29.1497 17.563C28.6779 17.563 28.1724 17.563 27.7006 17.563C23.7242 17.4618 19.7814 17.4281 15.9734 17.4955C10.5141 17.5967 5.22338 17.9001 0.033727 18.372V19.2147C5.22338 18.7765 10.5141 18.4394 15.9734 18.3383Z" fill="#FF65FF"/>
    <path d="M11.2218 25.5855C16.0071 25.181 20.7586 24.8776 25.3417 24.6416C76.6317 17.7986 125.327 33.2038 166.237 49.1485L166.339 49.1822H166.44C170.045 48.9125 173.82 48.7102 177.796 48.5417L180.694 48.4069C185.682 48.1709 191.107 47.8675 196.87 47.2607L196.769 46.418C191.04 47.0248 185.648 47.3282 180.661 47.5641L177.763 47.699C173.786 47.8675 170.045 48.0361 166.473 48.3394C125.462 32.3611 76.6654 16.9558 25.2743 23.7989C20.7249 24.0348 15.9734 24.3382 11.1544 24.7427C7.54861 25.0461 3.84172 25.4169 0.033727 25.8214V26.6642C3.87542 26.2597 7.61601 25.8889 11.2218 25.5855Z" fill="#FF65FF"/>
    <path d="M193.197 54.7446C187.4 56.2953 183.02 57.0032 178.672 57.0369C165.361 53.6659 152.05 49.2163 139.177 44.9351C103.355 33.0019 66.3198 20.6642 25.3417 30.1029L22.6121 30.0355C16.7822 29.8333 10.75 29.631 4.6842 29.9344C3.06664 30.0018 1.55018 30.1366 0.033727 30.2378V31.0805C1.55018 30.9457 3.10034 30.8108 4.7179 30.7434C10.75 30.4737 16.7822 30.676 22.5784 30.8782L25.3754 30.9794H25.4765C66.185 21.5744 103.153 33.8784 138.908 45.7779C151.814 50.059 165.125 54.5087 178.504 57.9133H178.639C183.053 57.8459 187.603 57.138 193.433 55.5874L193.197 54.7446Z" fill="#FF65FF"/>
    <path d="M0.808805 39.8787C3.87542 39.5079 6.94203 39.137 9.97495 38.7662C14.5917 38.2269 19.1748 37.755 23.6231 37.3167C60.6246 26.4622 94.9977 39.137 128.292 51.4073C143.524 57.0368 159.262 62.8349 175.1 66.307H175.235C180.324 65.7002 185.277 64.6215 189.658 63.6439L191.68 63.2057L191.512 62.3967L189.49 62.8349C185.143 63.7788 180.223 64.8575 175.235 65.4642C159.498 61.9921 143.794 56.1941 128.629 50.5983C95.2335 38.2943 60.692 25.5521 23.522 36.474C19.1411 36.8785 14.5917 37.3504 9.94125 37.8898C6.90833 38.2269 3.84172 38.5977 0.775106 39.0022C0.471815 39.0696 0.235921 39.1033 0.033727 39.137V39.9798C0.303319 39.9461 0.539213 39.9124 0.808805 39.8787Z" fill="#FF65FF"/>
    <path d="M4.5831 45.4403C7.27902 45.0695 9.97495 44.6987 12.7046 44.3279L16.8159 43.7549C65.7806 27.7091 114.509 50.4294 151.511 72.0372C153.937 73.2508 156.802 73.6216 159.902 73.6216C162.126 73.6216 164.451 73.453 166.844 73.2507C170.652 72.9474 174.595 72.644 178.672 72.9811C183.121 72.3069 187.4 71.2282 191.411 69.8461L191.141 69.037C187.198 70.4191 182.952 71.4641 178.672 72.1383C174.628 71.7675 170.652 72.1046 166.81 72.3743C161.183 72.8125 155.892 73.217 151.949 71.2619C114.745 49.6203 65.8143 26.7989 16.6137 42.9121L12.5698 43.4852C9.87385 43.856 7.17793 44.2268 4.482 44.5976C3.03294 44.7999 1.51649 45.0021 0.033727 45.2044V46.0471C1.55018 45.8449 3.10034 45.6426 4.5831 45.4403Z" fill="#FF65FF"/>
    <path d="M178.605 79.2176C157.779 76.2849 138.537 68.0934 119.901 60.138C86.4381 45.8788 54.8284 32.4287 15.1309 47.0923C9.67166 47.1935 4.7179 47.3957 0.033727 47.7665V48.6093C4.75159 48.2385 9.70535 48.0362 15.1983 47.9351L15.3331 47.9014C54.761 33.3051 86.2359 46.7215 119.531 60.9133C138.234 68.8687 157.577 77.1276 178.538 80.0603H178.639L178.74 80.0266C181.267 79.2513 183.795 78.3411 186.457 77.3636C188.31 76.6894 190.231 75.9815 192.321 75.2736L192.051 74.4645C189.962 75.1724 188.041 75.8803 186.154 76.5545C183.559 77.5658 181.065 78.476 178.605 79.2176Z" fill="#FF65FF"/>
    <path d="M157.341 87.1391C156.296 86.6671 155.218 86.1615 154.173 85.6895C155.218 86.2289 156.262 86.7345 157.341 87.1391Z" fill="#FF65FF"/>
    <path d="M167.147 89.1617C171.259 89.1617 175.673 88.0493 180.324 85.2177C181.604 84.712 182.851 84.1727 184.132 83.6333C187.737 82.1164 191.141 80.6669 194.443 79.8241L194.241 79.0151C190.905 79.8578 187.468 81.3074 183.828 82.858C182.581 83.3973 181.335 83.903 179.987 84.4423C171.629 89.4651 164.182 88.9257 157.61 86.2964C159.464 87.1391 161.317 87.9481 163.171 88.7572C164.451 89.0268 165.766 89.1617 167.147 89.1617Z" fill="#FF65FF"/>
    <path d="M3.20138 57.003C8.86282 56.4636 14.5917 55.7557 20.3205 54.913C66.96 40.8561 113.397 50.6993 147.838 81.8807C150.096 82.9257 152.286 83.9032 154.51 84.9145C152.454 83.8695 150.466 82.656 148.613 81.4087C113.936 49.8903 67.0948 39.9122 20.152 54.0703C14.5243 54.8793 8.79542 55.5872 3.16768 56.1265C2.19041 56.2277 1.14574 56.3288 0.0673666 56.4299V57.3064C1.11204 57.2052 2.19041 57.1041 3.20138 57.003Z" fill="#FF65FF"/>
    <path d="M147.501 81.7455C105.748 62.6321 58.4005 40.9569 8.62698 60.0702C5.59407 60.1376 2.79705 60.2387 0.033727 60.3736V61.2163C2.79705 61.0815 5.66147 60.9803 8.69438 60.9129L8.82918 60.8792C58.3331 41.867 103.456 62.531 147.13 82.5208C149.523 83.5995 151.814 84.6445 154.139 85.7232C155.184 86.1951 156.263 86.7008 157.307 87.1727C161.654 89.1278 165.934 91.0493 170.248 92.8696L170.416 92.9033C170.787 92.9033 171.191 92.9033 171.562 92.9033C175.909 92.9033 179.953 92.2628 183.929 90.9819C188.546 89.4649 193.163 86.9704 197.679 83.5658L197.173 82.8916C192.759 86.2625 188.243 88.6896 183.694 90.1728C179.481 91.5549 175.134 92.128 170.551 92.0606C168.091 91.0156 165.631 89.9032 163.171 88.8245C161.317 88.0154 159.464 87.2064 157.61 86.3637C156.6 85.8917 155.555 85.4198 154.544 84.9479C152.32 83.9366 150.163 82.959 147.871 81.914C147.737 81.8466 147.602 81.8129 147.501 81.7455Z" fill="#FF65FF"/>
    <path d="M169.911 95.3645C173.55 95.3645 177.358 95.0948 181.503 94.5218C185.244 93.915 188.614 93.0385 191.748 91.8587C195.185 90.544 198.353 88.8248 201.419 86.6337L200.947 85.9595C197.948 88.1169 194.848 89.7687 191.478 91.0497C188.378 92.2295 185.075 93.1059 181.402 93.679C175.404 94.488 170.079 94.6903 165.092 94.3195L158.689 91.5553C107.163 69.307 58.5016 48.3059 4.482 65.4978C2.96554 65.5989 1.48279 65.7 0.033727 65.7675V66.6102C1.51649 66.5091 3.03294 66.4417 4.5831 66.3742L4.6842 66.3405C58.4005 49.2161 106.961 70.1834 158.352 92.3643L163.744 94.6903C164.451 94.8588 165.125 95.0611 165.833 95.2296C167.147 95.2971 168.529 95.3645 169.911 95.3645Z" fill="#FF65FF"/>
    <path d="M0.741407 69.5092C0.505514 69.5429 0.26962 69.5767 0.033727 69.5767V70.4194C0.337018 70.3857 0.64031 70.352 0.943601 70.3183C44.685 55.1827 82.2931 68.3294 122.125 82.2178C139.615 88.3192 157.712 94.6566 176.819 98.668H176.954C182.076 98.0275 187.131 96.9151 192.051 95.3308C196.971 93.7464 201.588 91.7238 205.8 89.3305L205.362 88.5889C201.217 90.9485 196.668 92.9711 191.781 94.5218C186.962 96.0724 181.941 97.1848 176.92 97.8253C173.179 97.05 169.506 96.1398 165.833 95.1959C165.125 95.0274 164.451 94.8588 163.744 94.6566C149.489 90.8474 135.773 86.0943 122.395 81.4087C82.4279 67.4867 44.685 54.3062 0.741407 69.5092Z" fill="#FF65FF"/>
    <path d="M2.83075 73.2848C59.6473 65.4642 109.825 81.7122 164.889 102.039L165.024 102.073C166.608 102.174 168.192 102.208 169.843 102.208C174.056 102.208 178.571 101.904 183.458 101.264C188.041 100.691 192.556 99.6457 196.87 98.1288C201.453 96.5444 206.036 94.4207 210.451 91.7914L210.012 91.0835C205.632 93.6791 201.116 95.7691 196.6 97.3535C192.321 98.8367 187.872 99.848 183.357 100.421C176.617 101.264 170.652 101.533 165.125 101.196C109.994 80.8358 59.7147 64.6215 2.72965 72.4421C1.81978 72.5095 0.943601 72.6443 0.033727 72.7455V73.5882C0.9773 73.4871 1.88717 73.3522 2.83075 73.2848Z" fill="#FF65FF"/>
    <path d="M3.90912 77.06C48.5267 68.8349 85.8989 81.1051 125.462 94.0833C141.603 99.3757 158.318 104.87 175.404 108.747H175.505C180.189 108.612 184.536 108.073 188.816 107.095C198.083 104.972 206.643 100.825 214.933 94.4879V93.9822L214.663 93.6451C206.373 100.05 197.847 104.162 188.614 106.286C184.401 107.264 180.121 107.803 175.505 107.938C158.487 104.061 141.806 98.6004 125.697 93.308C87.786 80.8692 48.5604 67.9921 3.77432 76.251C2.52746 76.3184 1.28059 76.4869 0.033727 76.6555V77.4982C1.31429 77.3297 2.62855 77.1611 3.90912 77.06Z" fill="#FF65FF"/>
    <path d="M182.581 111.41C184.266 111.275 185.918 111.107 187.569 110.904C189.254 110.635 190.973 110.365 192.624 109.994C200.509 108.174 207.856 104.971 214.966 100.286V99.2745C207.822 104.061 200.408 107.331 192.422 109.185C188.041 110.196 183.559 110.769 178.773 110.938C172 111.41 166.204 111.343 161.014 110.769C103.456 84.476 54.1207 75.5092 5.76254 82.5882C3.84169 82.7568 1.92085 82.9253 0 83.0939V83.9366C1.95454 83.7681 3.90909 83.5995 5.86363 83.431C54.0533 76.3857 103.288 85.3187 160.711 111.545L160.846 111.578C161.958 111.713 163.171 111.781 164.35 111.848C165.799 111.781 167.215 111.713 168.63 111.713C174.056 111.848 178.504 111.713 182.581 111.41Z" fill="#FF65FF"/>
    <path d="M30.8684 85.7575C65.9828 85.3867 101.704 87.1733 134.594 109.084C139.784 112.523 145.85 113.366 151.848 113.366C154.813 113.366 157.745 113.163 160.576 112.961C163.238 112.793 165.766 112.59 168.158 112.59C168.327 112.59 168.462 112.59 168.63 112.59C174.089 112.624 178.571 112.523 182.649 112.219C194.208 111.377 204.857 108.747 214.966 104.331V103.388C206.306 107.23 197.274 109.691 187.569 110.871C185.918 111.073 184.266 111.242 182.581 111.377C178.504 111.68 174.056 111.815 168.63 111.748C167.248 111.748 165.833 111.781 164.35 111.882C163.103 111.95 161.823 112.017 160.509 112.118C152.084 112.691 142.547 113.366 135.066 108.343C97.9295 83.5663 57.2547 84.3416 17.9279 85.0833C14.2547 85.1507 10.5815 85.2181 6.87463 85.2855C4.4146 85.4878 2.15677 85.69 0.033727 85.926V86.7687C2.19047 86.5665 4.4483 86.3305 6.90833 86.1283C10.2782 86.0946 13.6481 86.0271 17.018 85.9597C21.6685 85.69 26.2853 85.6563 30.8684 85.7575Z" fill="#FF65FF"/>
    <path d="M0.471815 88.5214C0.337018 88.5552 0.168523 88.5889 0.033727 88.6226V89.499C0.235921 89.4316 0.471815 89.3979 0.674009 89.3642C3.30253 88.7237 5.99846 88.0495 8.66068 87.5102C56.0415 82.3526 98.4687 97.9601 141.435 115.894C144.973 117.073 148.512 117.444 152.016 117.444C154.915 117.444 157.813 117.208 160.677 116.939C164.35 116.635 168.158 116.298 171.899 116.534C176.886 116.568 181.436 116.366 185.884 115.927C196.162 114.916 205.766 112.523 214.933 108.713V107.803C205.733 111.646 196.128 114.073 185.817 115.085C181.402 115.523 176.886 115.725 171.933 115.691C168.158 115.455 164.317 115.793 160.61 116.13C154.409 116.669 147.973 117.208 141.738 115.152C105.545 100.05 69.6897 86.6337 30.9021 85.8247C26.319 85.7235 21.7022 85.7573 17.018 86.0606C14.221 86.2292 11.3903 86.4652 8.55959 86.7685C5.82996 87.2068 3.10034 87.881 0.471815 88.5214Z" fill="#FF65FF"/>
    <path d="M137.998 119.197C143.794 122.096 148.984 123.141 153.971 123.141C160.003 123.141 165.766 121.624 171.966 120.006L174.292 119.4C179.245 119.332 184.064 119.029 188.614 118.523C197.915 117.512 206.643 115.624 214.933 112.826V111.95C206.609 114.781 197.881 116.669 188.512 117.68C183.963 118.186 179.178 118.456 174.157 118.557L171.73 119.197C160.509 122.13 150.803 124.692 138.335 118.456C95.3346 96.949 50.0094 88.4879 0.033727 92.6679V93.5106C49.8746 89.3306 95.0987 97.758 137.998 119.197Z" fill="#FF65FF"/>
    <path d="M141.705 121.827C93.7171 104.669 46.7406 89.8363 0.033727 95.095V95.9377C44.9883 90.8139 90.3135 104.5 136.582 120.883C138.705 121.321 140.862 121.759 142.985 122.164C142.547 122.063 142.143 121.962 141.705 121.827Z" fill="#FF65FF"/>
    <path d="M171.393 122.164C167.956 122.029 164.418 122.366 160.98 122.703C157.071 123.074 153.061 123.479 149.051 123.209C150.972 123.512 152.893 123.782 154.78 124.018C156.869 123.917 158.992 123.748 161.048 123.546C164.62 123.209 167.99 122.872 171.326 123.007C172.674 123.04 173.921 123.007 175.235 123.007C175.269 123.007 175.302 123.007 175.336 123.007C180.324 122.771 185.311 122.4 190.164 121.894C195.926 121.321 201.655 120.546 207.317 119.636C209.911 119.029 212.439 118.355 214.933 117.579V116.703C206.103 119.433 196.802 121.119 186.861 121.827C181.941 122.164 176.886 122.299 171.393 122.164Z" fill="#FF65FF"/>
    <path d="M148.916 124.018C146.86 123.68 144.805 123.343 142.783 122.973C144.838 123.546 146.894 123.883 148.916 124.018Z" fill="#FF65FF"/>
    <path d="M175.336 123.006C175.302 123.006 175.269 123.006 175.235 123.006C170.045 123.613 163.879 124.253 157.813 124.422C156.802 124.321 155.791 124.152 154.78 124.017C152.859 123.781 150.972 123.512 149.051 123.208C147.029 122.871 145.007 122.534 142.951 122.163C140.828 121.759 138.672 121.321 136.549 120.882C124.08 118.253 111.611 114.781 99.3785 111.41C67.0948 102.409 33.6991 93.1731 0.033727 98.6677V99.5105C33.5643 94.0158 66.8926 103.252 99.1763 112.219C113.498 116.197 128.158 120.276 142.783 123.006C144.839 123.377 146.894 123.714 148.916 124.051C151.882 124.523 154.847 124.961 157.779 125.298C163.98 125.13 170.18 124.489 175.404 123.882C180.391 123.647 185.378 123.276 190.231 122.77C198.555 121.961 206.777 120.747 214.933 119.231V118.32C212.405 118.792 209.844 119.231 207.317 119.635C201.621 120.545 195.893 121.321 190.164 121.894C185.311 122.366 180.324 122.736 175.336 123.006Z" fill="#FF65FF"/>
    <path d="M140.02 131.333C139.278 131.198 138.537 131.063 137.795 130.928C138.537 131.063 139.245 131.232 140.02 131.333Z" fill="#FF65FF"/>
    <path d="M165.867 130.018C170.854 129.883 175.471 129.68 179.953 129.343C191.882 128.501 203.61 126.815 214.933 124.354V123.478C203.576 125.939 191.815 127.658 179.885 128.501C175.404 128.838 170.82 129.04 165.766 129.175C157.543 131.231 148.141 131.636 139.918 130.422C143.12 130.961 146.321 131.467 149.523 131.939C155.049 131.973 160.711 131.332 165.867 130.018Z" fill="#FF65FF"/>
    <path d="M131.595 128.569C129 127.557 126.405 126.58 123.81 125.568C83.4052 109.893 41.6857 93.7803 0.033727 103.118V103.994C41.5173 94.6567 83.203 110.736 123.507 126.344C125.394 127.085 127.281 127.793 129.135 128.535C131.696 129.007 134.257 129.479 136.818 129.917C135.032 129.546 133.246 129.108 131.595 128.569Z" fill="#FF65FF"/>
    <path d="M99.7829 123.512C112.218 126.074 124.956 128.67 137.795 130.928C138.537 131.063 139.278 131.198 140.02 131.333C144.737 132.142 149.455 132.883 154.173 133.558C158.958 133.625 163.103 133.693 167.181 133.693C168.462 133.693 169.708 133.693 170.989 133.659C186.861 133.558 201.318 131.872 214.933 128.468V127.591C201.284 130.996 186.861 132.681 170.989 132.782C165.665 132.85 160.441 132.749 154.241 132.648C152.657 132.412 151.073 132.142 149.489 131.906C146.288 131.4 143.086 130.928 139.885 130.389C138.874 130.22 137.863 130.018 136.818 129.85C134.257 129.411 131.696 128.939 129.135 128.468C119.295 126.614 109.522 124.625 99.9177 122.636C67.7351 115.995 34.5078 109.152 0 109.085V109.995C12.3339 110.028 24.4992 110.871 36.5298 112.321C52.2335 113.534 67.9373 116.164 83.6073 120.209C89.0329 121.321 94.4247 122.4 99.7829 123.512Z" fill="#FF65FF"/>
    <path d="M83.6411 120.242C68.0047 116.197 52.301 113.567 36.5635 112.354C24.3981 111.41 12.1991 111.309 0.033727 112.084V112.927C43.0674 110.196 86.337 118.253 128.831 136.861C129.876 137.029 130.955 137.198 132.033 137.366C115.992 130.152 99.8503 124.422 83.6411 120.242Z" fill="#FF65FF"/>
    <path d="M149.725 139.693C144.468 140.266 139.413 140.131 135.032 138.682C134.965 138.648 134.897 138.614 134.83 138.58C133.785 138.446 132.741 138.243 131.696 138.108C132.707 138.546 133.718 138.985 134.729 139.456C137.728 140.468 141.03 140.872 144.434 140.872C147.939 140.872 151.578 140.434 155.251 139.726C154.443 139.726 153.6 139.794 152.791 139.794C151.747 139.794 150.736 139.727 149.725 139.693Z" fill="#FF65FF"/>
    <path d="M159.7 138.783C163.103 137.974 166.507 136.996 169.776 135.951C174.359 135.884 178.908 135.715 183.357 135.513C194.005 135.007 204.587 134.063 214.966 132.715V131.872C204.587 133.221 193.972 134.164 183.323 134.67C178.875 134.872 174.292 135.041 169.708 135.108L169.574 135.142C164.822 136.625 159.801 138.007 154.847 138.951C156.364 138.918 157.914 138.884 159.464 138.783C159.565 138.783 159.632 138.783 159.7 138.783Z" fill="#FF65FF"/>
    <path d="M84.5172 126.546C99.8503 131.097 115.52 135.715 131.662 138.108C132.707 138.277 133.752 138.445 134.796 138.58C139.716 139.221 144.67 139.558 149.691 139.693C150.702 139.726 151.713 139.794 152.758 139.794C153.567 139.794 154.409 139.726 155.218 139.726C156.633 139.693 158.049 139.693 159.464 139.625C164.283 139.659 168.596 139.659 172.944 139.625C187.232 139.49 201.284 138.648 214.933 137.164V136.322C201.284 137.805 187.198 138.648 172.944 138.782C168.697 138.816 164.418 138.816 159.7 138.816C159.599 138.816 159.531 138.816 159.464 138.816C157.914 138.917 156.397 138.951 154.847 138.985C147.13 139.12 139.514 138.513 131.999 137.4C130.921 137.232 129.876 137.063 128.798 136.895C113.734 134.4 99.0752 130.052 84.6857 125.771C56.1089 117.208 28.9475 109.152 0.033727 115.085V115.961C28.8127 109.995 55.9067 118.051 84.5172 126.546Z" fill="#FF65FF"/>
    <path d="M6.26805 119.028C13.4122 117.41 20.1521 115.86 26.8919 115.86C41.6184 119.264 56.1763 123.882 70.2625 128.332C98.0643 137.13 126.81 146.232 157.712 146.266C161.688 146.4 165.597 146.468 169.405 146.468C170.888 146.468 172.337 146.468 173.752 146.434C188.411 146.232 201.925 144.85 214.933 142.389V141.58C201.891 144.041 188.378 145.423 173.752 145.625C168.63 145.692 163.238 145.625 157.745 145.457C126.944 145.423 98.2665 136.321 70.5321 127.557C56.4122 123.073 41.8542 118.455 26.993 115.05C20.0847 115.05 13.2775 116.601 6.06586 118.219C4.11131 118.657 2.08937 119.096 0.033727 119.534V120.377C2.12307 119.972 4.21241 119.5 6.26805 119.028Z" fill="#FF65FF"/>
    <path d="M26.9255 119.264C44.6849 121.995 61.5682 128.13 77.8448 134.096C99.8166 142.119 120.71 149.738 143.592 149.704C146.321 149.704 149.085 149.603 151.882 149.367C158.655 149.333 164.215 149.266 169.371 149.131C184.502 148.76 199.903 147.884 214.933 146.973V146.131C199.903 147.041 184.469 147.951 169.338 148.288C164.182 148.423 158.655 148.49 151.814 148.524C125.765 150.648 102.614 142.22 78.1144 133.287C61.7704 127.321 44.8871 121.186 26.9592 118.421C18.4334 118.421 9.87382 120.781 0 124.422V125.332C9.94122 121.624 18.5008 119.264 26.9255 119.264Z" fill="#FF65FF"/>
    <path d="M80.9451 142.524C102.209 148.794 122.395 154.76 143.154 154.76C144.333 154.76 145.546 154.727 146.759 154.693C152.421 154.693 157.139 154.693 161.553 154.592C175.336 154.356 189.86 153.547 206.002 152.131C209.204 152.064 212.136 152.03 214.966 151.996V151.154C212.136 151.187 209.17 151.221 205.969 151.288C189.86 152.704 175.336 153.513 161.553 153.749C157.105 153.817 152.421 153.85 146.759 153.85C124.855 154.558 103.658 148.322 81.2147 141.715C55.3339 134.063 28.6105 126.242 0.033727 129.579V130.422C28.5094 127.085 55.1654 134.906 80.9451 142.524Z" fill="#FF65FF"/>
    <path d="M87.5164 151.963C100.322 157.424 113.566 161.874 127.719 161.874C131.932 161.874 136.212 161.469 140.559 160.593C145.142 160.829 149.691 160.963 154.106 160.997C170.955 161.132 188.614 160.02 207.957 157.491C210.383 157.39 212.675 157.356 214.933 157.323V156.48C212.675 156.48 210.349 156.547 207.889 156.615C188.58 159.143 170.989 160.289 154.139 160.121C149.725 160.087 145.175 159.952 140.525 159.716C116.868 164.436 96.9521 155.368 75.8902 145.794C73.565 144.749 71.2061 143.67 68.8471 142.625C70.3299 143.367 71.8126 144.109 73.3291 144.884C77.9122 147.277 82.6637 149.671 87.5164 151.963Z" fill="#FF65FF"/>
    <path d="M13.7155 130.725C8.35739 131.737 3.57213 133.153 0.033727 134.366V135.276C3.57213 134.063 8.35739 132.613 13.8503 131.568C30.6999 129.579 45.9992 134.063 60.6583 140.063C62.7814 140.67 64.9044 141.243 67.0274 141.85C50.4475 134.602 33.1599 128.433 13.7155 130.725Z" fill="#FF65FF"/>
    <path d="M66.6567 142.659C67.3307 142.963 67.971 143.232 68.645 143.536C68.1732 143.3 67.7014 143.064 67.2633 142.828C67.0611 142.76 66.8589 142.693 66.6567 142.659Z" fill="#FF65FF"/>
    <path d="M0.033727 139.828V140.771C21.7359 130.018 44.5839 136.356 66.6568 142.626C66.8589 142.693 67.0611 142.727 67.2633 142.794C67.7351 143.03 68.2069 143.266 68.645 143.502C70.0604 144.21 71.4757 144.951 72.9585 145.659C91.931 155.3 113.397 166.189 135.437 163.93C140.592 164.672 145.243 165.245 149.658 165.717C158.217 166.627 166.305 167.065 173.955 167.065C185.412 167.065 195.893 166.054 205.665 163.997C208.799 163.761 211.933 163.492 215 163.222V162.379C211.9 162.649 208.732 162.919 205.564 163.155C189.321 166.526 171.09 167.099 149.759 164.84C145.344 164.368 140.727 163.795 135.47 163.054C118.924 164.739 102.681 158.941 87.5839 151.896C82.7312 149.603 77.9796 147.21 73.3629 144.884C71.8801 144.142 70.3974 143.367 68.8809 142.626C68.4428 142.423 68.0047 142.187 67.6003 141.985C67.4318 141.918 67.2296 141.884 67.0611 141.816C64.9381 141.21 62.8151 140.603 60.692 140.03C40.4726 134.468 19.8151 130.187 0.033727 139.828Z" fill="#FF65FF"/>
    <path d="M11.1207 140.771C24.7688 139.288 37.4059 141.681 49.8409 145.693C51.8628 146.333 53.851 147.008 55.8393 147.715C61.8714 149.873 67.9035 152.334 74.0368 154.828C92.3691 162.312 111.342 170.065 132.673 170.301C137.054 171.11 141.098 171.717 145.074 172.222C152.421 173.166 159.43 173.604 166.17 173.604C176.448 173.604 186.052 172.526 195.185 170.335L199.566 169.998C203.61 169.66 207.654 169.357 211.63 169.054C212.776 168.953 213.854 168.885 214.932 168.818V167.975C213.82 168.042 212.742 168.11 211.563 168.211C207.586 168.514 203.542 168.818 199.498 169.155L195.05 169.526C179.987 173.099 163.676 173.739 145.209 171.38C141.266 170.874 137.223 170.267 132.774 169.458C111.51 169.222 92.6386 161.503 74.3738 154.053C53.4804 145.524 33.7327 137.468 11.0196 139.929C7.17787 140.603 3.50467 141.715 0.0673666 143.3V144.243C3.50467 142.659 7.21157 141.479 11.1207 140.771Z" fill="#FF65FF"/>
    <path d="M13.8166 142.625C8.93028 143.603 4.31351 145.322 0.033727 147.749V148.693C4.34721 146.199 9.03137 144.412 13.9851 143.434C39.7649 139.086 62.377 150.581 84.2476 161.739C98.9741 169.222 114.172 176.976 129.977 179.571C133.549 180.212 137.189 180.751 140.828 181.088C145.142 181.526 149.489 181.729 153.87 181.729C164.552 181.729 175.471 180.481 186.423 177.987C191.815 177.481 197.51 176.874 204.284 176.032C207.822 175.593 211.293 175.155 214.966 174.683V173.841C211.259 174.312 207.755 174.784 204.149 175.223C197.375 176.065 191.714 176.672 186.255 177.178C170.854 180.684 155.589 181.729 140.896 180.279C137.29 179.908 133.684 179.403 130.112 178.762C114.442 176.2 99.2774 168.481 84.6183 160.997C75.2163 156.21 65.6794 151.356 55.8393 147.715C53.851 146.974 51.8628 146.3 49.8409 145.693C38.4169 142.153 26.5212 140.468 13.8166 142.625Z" fill="#FF65FF"/>
    <path d="M15.0972 146.536C44.8198 143.468 71.4083 157.458 97.1207 170.975C102.074 173.571 107.23 176.301 112.353 178.863C117.306 180.448 122.024 181.526 126.675 182.2C132.808 183.65 138.908 184.729 144.805 185.47C150.972 186.246 157.139 186.616 163.103 186.616C163.238 186.616 163.407 186.616 163.542 186.616C165.631 186.684 167.754 186.718 169.843 186.718C172.674 186.718 175.505 186.65 178.302 186.549C190.332 186.01 202.632 184.29 214.933 181.493V180.616C202.599 183.448 190.299 185.167 178.268 185.706C173.415 185.909 168.462 185.942 163.542 185.774C157.408 185.774 151.174 185.403 144.906 184.628C139.042 183.886 132.976 182.807 126.843 181.358C122.193 180.684 117.542 179.605 112.69 178.054C107.601 175.526 102.479 172.829 97.5251 170.2C71.6779 156.615 44.9883 142.625 14.9624 145.693C9.60426 146.738 4.5831 148.794 0.033727 151.761V152.772C0.134824 152.705 0.202222 152.637 0.303319 152.57C4.78529 149.637 9.77275 147.581 15.0972 146.536Z" fill="#FF65FF"/>
    <path d="M3.23514 158.84C8.1552 156.177 13.4796 154.356 19.0063 153.446C48.493 150.48 70.8691 163.627 94.5933 177.481C101.468 181.493 108.578 185.673 115.891 189.414C120.07 190.864 124.417 192.077 128.798 193.055C138.234 195.145 148.107 196.19 158.52 196.19C175.774 196.19 194.477 193.325 214.966 187.56V186.684C182.11 195.954 153.904 197.774 128.966 192.246C124.619 191.268 120.306 190.055 116.194 188.673C108.949 184.965 101.872 180.818 94.9976 176.807C71.1724 162.851 48.6278 149.671 18.8715 152.637C13.2438 153.581 7.81821 155.401 2.83075 158.132C1.88717 158.604 0.943601 159.211 0.033727 159.784V160.761C1.0784 160.087 2.15677 159.447 3.23514 158.84Z" fill="#FF65FF"/>
    <path d="M122.934 195.482C118.553 194.066 114.004 192.28 109.488 190.291L106.085 188.133C78.1818 170.503 49.3017 152.266 16.0071 156.075C10.8174 157.222 5.96476 159.312 1.58388 162.244C1.0784 162.615 0.572912 163.053 0.033727 163.424V164.469C0.707708 163.963 1.38169 163.424 2.08937 162.952C6.36915 160.053 11.1544 158.031 16.1756 156.918C49.0995 153.176 77.8448 171.312 105.647 188.875L109.084 191.032C113.701 193.089 118.25 194.841 122.665 196.291C135.908 200.639 149.759 202.797 163.98 202.797C180.627 202.797 197.746 199.797 214.933 193.864V192.954C183.222 203.977 151.578 204.887 122.934 195.482Z" fill="#FF65FF"/>
    <path d="M3.94282 169.357C8.32369 166.862 13.109 165.143 18.1301 164.233C43.2359 160.356 63.8934 172.256 83.9107 183.751C86.8762 185.47 89.9428 187.223 92.9083 188.875C96.8848 191.335 100.625 193.763 104.231 196.088L105.68 197.032C110.836 199.527 115.992 201.651 121.081 203.336C134.291 207.718 147.737 209.505 161.081 209.505C179.481 209.505 197.679 206.1 214.966 201.516V200.673C185.244 208.595 152.657 212.943 121.35 202.561C116.295 200.909 111.173 198.785 106.085 196.324L104.669 195.414C101.063 193.088 97.3229 190.661 93.3464 188.167C90.3809 186.515 87.3143 184.762 84.315 183.043C64.1967 171.48 43.4044 159.48 17.9953 163.424C12.8731 164.368 7.9867 166.121 3.50473 168.649C2.32526 169.323 1.17949 170.065 0.033727 170.84V171.885C1.31429 170.941 2.59485 170.098 3.94282 169.357Z" fill="#FF65FF"/>
    <path d="M181.604 215H187.434C196.466 213.584 205.665 211.393 214.966 208.494V207.618C203.677 211.123 192.489 213.618 181.604 215Z" fill="#FF65FF"/>
    <path d="M3.87542 174.548C7.953 172.054 12.435 170.267 17.2202 169.222C21.5337 168.784 26.0157 168.649 30.4977 168.885C34.8111 169.087 39.2257 169.593 43.6403 170.436C57.4232 172.694 69.1842 179.975 81.5854 187.661C84.4161 189.414 87.3817 191.268 90.3809 193.021C94.5259 196.156 98.435 199.426 101.973 202.763L102.074 202.831C107.365 205.561 112.69 207.887 117.846 209.741C124.181 212.033 130.786 213.752 137.593 214.966H143.12C134.426 213.786 126.034 211.797 118.115 208.932C112.993 207.078 107.736 204.752 102.479 202.055C98.9067 198.718 94.9976 195.414 90.819 192.279C87.786 190.493 84.8542 188.639 82.0235 186.886C69.5212 179.133 57.7265 171.818 43.7751 169.559C39.3268 168.716 34.8785 168.211 30.5314 168.009C26.0157 167.773 21.5 167.907 17.0854 168.346C12.1654 169.424 7.58231 171.245 3.43733 173.807C2.25786 174.548 1.1458 175.324 0.033727 176.166V177.245C1.28059 176.267 2.56116 175.357 3.87542 174.548Z" fill="#FF65FF"/>
    <path d="M209.406 215H212.169C213.113 214.696 214.023 214.46 214.933 214.157V213.247C213.113 213.82 211.259 214.427 209.406 215Z" fill="#FF65FF"/>
    <path d="M7.61601 179.268C12.1991 176.807 17.0854 175.088 22.0729 174.211C38.5854 170.874 51.9303 177.717 66.0502 184.931C70.2962 187.122 74.7108 189.38 79.0917 191.234C83.0345 193.763 87.1121 196.561 91.9647 200.033C95.5368 202.595 98.9741 205.156 102.277 207.584L103.827 208.73C108.275 211.157 112.69 213.179 116.969 214.932H119.126C114.307 213.045 109.286 210.719 104.299 208.022L102.782 206.909C99.4796 204.449 96.0423 201.92 92.4702 199.325C87.6176 195.819 83.5063 193.021 79.4961 190.459C75.0815 188.571 70.6669 186.313 66.4209 184.122C52.7727 177.144 38.6865 169.93 21.9044 173.335C16.8159 174.211 11.8621 175.964 7.17793 178.458C4.78529 179.841 2.39266 181.391 0.033727 183.144V184.223C2.49376 182.301 5.02119 180.65 7.61601 179.268Z" fill="#FF65FF"/>
    <path d="M17.8268 177.414C22.0055 176.571 26.6223 176.47 31.6434 177.178C36.0917 176.874 40.8096 177.582 45.6285 179.302C50.6497 181.088 55.8057 184.021 60.9953 187.999C65.511 190.426 70.3299 193.291 75.6544 196.696C82.0235 200.775 88.0893 204.955 93.9193 209C96.8174 210.989 99.6144 212.944 102.277 214.73C102.411 214.798 102.546 214.865 102.681 214.933H104.433C103.86 214.629 103.288 214.326 102.748 214.022C100.086 212.236 97.2892 210.314 94.4248 208.292C88.5611 204.247 82.4953 200.067 76.1262 195.954C70.768 192.516 65.9491 189.65 61.4671 187.257C56.2437 183.246 51.0204 180.313 45.9318 178.459C41.0118 176.706 36.1928 175.964 31.7108 176.301C26.6897 175.593 21.9718 175.661 17.692 176.537C10.9522 177.953 5.05488 181.358 0.033727 186.684V187.898C5.08858 182.335 11.0196 178.796 17.8268 177.414Z" fill="#FF65FF"/>
    <path d="M95.3683 214.999H96.7163C77.8785 200.1 33.0251 170.604 0.033727 195.515V196.56C32.1152 171.75 76.0251 199.897 95.3683 214.999Z" fill="#FF65FF"/>
    <path d="M32.2163 190.83C31.7108 190.83 31.2053 190.797 30.6999 190.797C19.3096 190.797 9.03137 194.403 0.033727 201.482V202.527C9.03137 195.28 19.3096 191.606 30.6999 191.606C31.2053 191.606 31.6771 191.606 32.1826 191.639C50.8519 192.145 70.2625 202.494 85.9326 214.966H87.2806C71.3746 202.123 51.4585 191.336 32.2163 190.83Z" fill="#FF65FF"/>
</svg>
