<svg width="159" height="159" viewBox="0 0 159 159" fill="none" xmlns="http://www.w3.org/2000/svg">
    <path d="M0 0.758146V3.91709L48.4371 0H9.30834L0 0.758146Z" fill="#00F0FF"/>
    <path d="M159 9.60317V6.44423L0 19.3327V22.4917L159 9.60317Z" fill="#00F0FF"/>
    <path d="M159 28.1778V25.0188L0 37.9073V41.0662L159 28.1778Z" fill="#00F0FF"/>
    <path d="M159 46.7944V43.5934L0 56.4818V59.6408L159 46.7944Z" fill="#00F0FF"/>
    <path d="M159 65.369V62.168L0 75.0564V78.2575L159 65.369Z" fill="#00F0FF"/>
    <path d="M159 83.9436V80.7425L0 93.631V96.832L159 83.9436Z" fill="#00F0FF"/>
    <path d="M159 102.518V99.3592L0 112.206V115.407L159 102.518Z" fill="#00F0FF"/>
    <path d="M159 121.093V117.934L0 130.822V133.981L159 121.093Z" fill="#00F0FF"/>
    <path d="M159 139.667V136.508L0 149.397V152.556L159 139.667Z" fill="#00F0FF"/>
    <path d="M159 158.242V155.083L110.563 159H149.692L159 158.242Z" fill="#00F0FF"/>
</svg>
