<svg width="19" height="229" viewBox="0 0 19 229" fill="none" xmlns="http://www.w3.org/2000/svg">
    <path d="M-4.59855e-07 218.48L-3.75011e-07 220.421L8.54324 220.421L8.54324 229L10.4761 229L10.4761 220.421L19 220.421L19 218.48L10.4761 218.48L10.4761 209.92L8.54324 209.92L8.54324 218.48L-4.59855e-07 218.48Z" fill="#FF65FF"/>
    <path d="M-3.51848e-06 148.506L-3.43364e-06 150.447L8.54324 150.447L8.54324 159.027L10.4761 159.027L10.4761 150.447L19 150.447L19 148.506L10.4761 148.506L10.4761 139.947L8.54324 139.947L8.54324 148.506L-3.51848e-06 148.506Z" fill="#FF65FF"/>
    <path d="M-6.57711e-06 78.5332L-6.49227e-06 80.4742L8.54323 80.4742L8.54323 89.0535L10.4761 89.0535L10.4761 80.4742L19 80.4742L19 78.5332L10.4761 78.5332L10.4761 69.9734L8.54323 69.9734L8.54323 78.5332L-6.57711e-06 78.5332Z" fill="#FF65FF"/>
    <path d="M8.54323 8.55984L-9.63575e-06 8.55984L-9.5509e-06 10.5009L8.54323 10.5009L8.54323 19.0801L10.4761 19.0801L10.4761 10.5009L19 10.5009L19 8.55984L10.4761 8.55984L10.4761 -4.57925e-07L8.54323 -3.73437e-07L8.54323 8.55984Z" fill="#FF65FF"/>
</svg>
