<svg width="344" height="344" viewBox="0 0 344 344" fill="none" xmlns="http://www.w3.org/2000/svg">
    <path d="M239.56 223.509C231.526 223.293 223.6 222.753 215.728 221.729C215.836 221.783 215.944 221.837 216.051 221.89C223.061 224.21 231.149 224.425 239.56 223.509Z" fill="#FF65FF"/>
    <path d="M280.43 196.81C278.327 196.81 276.332 196.864 274.175 196.81C268.784 196.594 263.392 197.134 257.73 197.673C254.441 197.997 251.098 198.266 247.701 198.428C249.319 198.644 250.937 198.913 252.554 199.075C262.259 198.806 272.073 197.781 280.43 196.81Z" fill="#FF65FF"/>
    <path d="M140.673 19.686C147.844 20.7647 155.123 21.6816 162.564 22.3827C155.285 21.4119 148.006 20.5489 140.673 19.686Z" fill="#FF65FF"/>
    <path d="M198.043 0.647224C202.626 0.647224 207.263 0.539353 211.954 0.377547C212.87 0.269677 213.841 0.107871 214.757 0H178.578C184.994 0.377547 191.464 0.647224 198.043 0.647224Z" fill="#FF65FF"/>
    <path d="M226.188 8.03637C234.869 7.06553 244.143 6.2565 253.686 5.55534C284.15 3.29006 315.315 2.64283 343.892 2.69677V1.29445C315.261 1.24051 284.096 1.94167 253.579 4.15302C243.981 4.85418 234.707 5.71715 226.134 6.68798L221.389 6.63405C189.362 6.2565 156.525 5.82502 123.743 0H116.464C151.673 7.11947 186.989 7.55095 221.389 7.98243L226.188 8.03637Z" fill="#FF65FF"/>
    <path d="M275.362 12.6748C266.249 12.9445 257.245 13.3221 248.726 13.7536C204.028 16.3425 159.76 9.5466 116.895 3.02042C110.425 2.04959 103.847 1.02482 97.269 0.0539801H88.3185C88.4263 0.107915 88.4802 0.107915 88.5881 0.161851C97.8621 1.51023 107.46 2.96649 116.68 4.36881C153.182 9.97808 190.71 15.6952 228.668 15.6952C235.354 15.6952 242.04 15.5334 248.78 15.1019C257.299 14.6705 266.303 14.2929 275.416 14.0232C299.086 13.3221 322.594 13.1603 343.946 13.3221V11.9198C322.54 11.8119 299.032 11.9198 275.362 12.6748Z" fill="#FF65FF"/>
    <path d="M72.6821 1.56412C70.795 1.02477 69.0156 0.485418 67.2903 0H62.3298C65.4031 0.862965 68.6921 1.77987 72.2508 2.85857C84.3285 7.71275 97.0532 11.704 110.209 14.994C114.038 15.3716 117.92 15.8031 121.694 16.1806C104.494 12.5669 88.1028 7.76669 72.6821 1.56412Z" fill="#FF65FF"/>
    <path d="M200.253 25.5658C214.38 25.5658 228.938 24.8647 243.873 23.5163L264.794 23.5702C289.92 23.6781 316.555 23.786 343.892 24.1635V22.8691C316.555 22.4915 289.92 22.3297 264.794 22.2219L243.819 22.1679C222.414 24.1096 201.925 24.4871 182.137 23.6781C185.965 24.2175 189.847 24.8107 193.675 25.404C195.886 25.458 198.043 25.5658 200.253 25.5658Z" fill="#FF65FF"/>
    <path d="M140.673 19.686C133.933 18.9309 127.194 18.1761 120.454 17.421C140.35 21.7359 161.27 24.3247 183.323 25.1877C176.367 24.1629 169.466 23.246 162.564 22.3291C155.177 21.6819 147.844 20.7647 140.673 19.686Z" fill="#FF65FF"/>
    <path d="M44.2671 8.95301C50.1442 9.65417 56.1831 10.5171 62.869 11.5419L74.9467 12.7285C90.3135 14.2387 105.465 15.7489 120.508 17.3669C127.248 18.0681 133.987 18.8232 140.727 19.6322C148.06 20.4952 155.339 21.3581 162.618 22.329C169.52 23.2459 176.475 24.1628 183.377 25.1875C206.562 28.5315 229.855 32.5767 253.794 37.8084C262.421 38.8871 270.239 39.804 278.112 40.5591C287.008 41.4221 296.552 42.0693 306.581 42.0693C318.443 42.0693 331.006 41.0445 343.892 38.2399V36.9994C320.222 42.1232 297.63 41.0985 278.219 39.2647C270.347 38.5096 262.529 37.5927 254.01 36.514C233.521 32.0373 213.517 28.4776 193.675 25.4572C189.793 24.8639 185.965 24.2706 182.137 23.7313C161.971 20.7648 141.913 18.392 121.694 16.1806C117.866 15.7491 114.038 15.3716 110.209 14.994C98.6169 13.8074 86.9166 12.6206 75.1085 11.434L63.0307 10.2475C56.3988 9.16875 50.306 8.30578 44.4289 7.65856C28.4151 5.71689 13.8032 5.17753 0.0539632 5.77082V7.11921C13.7493 6.52592 28.3072 7.06527 44.2671 8.95301Z" fill="#FF65FF"/>
    <path d="M30.1944 17.9062C36.3411 18.1219 42.6496 18.4995 49.4433 19.0928C70.7411 21.9513 92.4163 24.4324 113.445 26.8594C165.961 32.9002 220.257 39.2106 272.45 51.1303C276.332 51.3461 280.322 51.454 284.528 51.454C287.601 51.454 290.836 51.4 294.179 51.2922C303.076 50.9685 311.757 50.3213 320.923 49.6202C326.369 49.1887 332.03 48.7572 337.691 48.4336L337.584 47.0852C331.922 47.4627 326.261 47.8942 320.761 48.2718C311.595 48.9729 302.968 49.6741 294.071 49.9438C286.199 50.2134 279.136 50.1595 272.558 49.782C220.419 37.8083 166.069 31.5518 113.498 25.5111C92.5242 23.084 70.795 20.6029 49.4972 17.7444C42.7574 17.1511 36.395 16.7735 30.2483 16.5578C19.6803 16.2342 9.65145 16.396 0.0539632 17.0971V18.4455C9.65145 17.7444 19.6264 17.5826 30.1944 17.9062Z" fill="#FF65FF"/>
    <path d="M25.5574 29.3412C31.6502 29.2334 37.9047 29.2873 44.2671 29.4491C45.022 29.4491 45.8308 29.4491 46.5856 29.4491C104.925 29.4491 163.804 42.8251 220.796 55.7156C235.3 59.0057 250.236 62.4036 264.794 65.4779C269.323 65.7476 273.69 66.233 277.896 66.6645C283.449 67.2578 288.68 67.8511 294.018 67.959C294.557 67.959 295.096 67.959 295.689 67.959C306.203 67.959 315.207 65.9633 324.589 61.4867L323.996 60.2462C314.291 64.8307 305.071 66.7724 294.018 66.5566C288.734 66.4488 283.503 65.8555 278.004 65.2622C273.798 64.8307 269.431 64.3453 264.955 64.0756C250.505 61.0552 235.516 57.6573 221.066 54.3672C164.128 41.4767 105.141 28.1007 46.6395 28.1007C45.8847 28.1007 45.0759 28.1007 44.321 28.1007C37.9587 27.9389 31.6502 27.885 25.5574 27.9929C16.8226 28.1547 8.35741 28.6401 0.0539632 29.3952V30.7436C8.35741 30.0424 16.8226 29.5031 25.5574 29.3412Z" fill="#FF65FF"/>
    <path d="M17.9549 40.9368C25.6113 40.2895 33.2138 39.8041 40.5467 39.4266C122.611 28.4777 200.523 53.1261 265.98 78.6376L266.142 78.6915H266.303C272.073 78.26 278.112 77.9364 284.474 77.6667L289.111 77.451C297.091 77.0734 305.772 76.588 314.992 75.6172L314.83 74.2688C305.664 75.2396 297.037 75.725 289.057 76.1026L284.42 76.3183C278.058 76.588 272.073 76.8577 266.357 77.3431C200.739 51.7778 122.665 27.1293 40.4389 38.0782C33.1599 38.4557 25.5574 38.9412 17.8471 39.5884C12.0778 40.0738 6.14675 40.6671 0.0539632 41.3143V42.6627C6.20067 42.0155 12.1856 41.4222 17.9549 40.9368Z" fill="#FF65FF"/>
    <path d="M309.115 87.5914C299.841 90.0724 292.831 91.2051 285.876 91.259C264.578 85.8655 243.28 78.746 222.683 71.8962C165.368 52.8031 106.112 33.0628 40.5467 48.1647L36.1793 48.0568C26.8514 47.7332 17.2 47.4096 7.49471 47.895C4.90663 48.0029 2.48029 48.2186 0.0539632 48.3804V49.7288C2.48029 49.5131 4.96055 49.2973 7.54863 49.1895C17.2 48.758 26.8514 49.0816 36.1254 49.4052L40.6007 49.567H40.7624C105.896 34.519 165.045 54.2054 222.252 73.2446C242.903 80.0944 264.201 87.2139 285.606 92.6613H285.822C292.885 92.5535 300.164 91.4208 309.492 88.9398L309.115 87.5914Z" fill="#FF65FF"/>
    <path d="M1.29409 63.8059C6.20067 63.2126 11.1073 62.6193 15.9599 62.026C23.3467 61.163 30.6797 60.4079 37.7969 59.7068C96.9994 42.3396 151.996 62.6193 205.268 82.2517C229.639 91.2589 254.819 100.536 280.16 106.091H280.376C288.518 105.12 296.444 103.394 303.453 101.83L306.688 101.129L306.419 99.8347L303.184 100.536C296.228 102.046 288.356 103.772 280.376 104.743C255.196 99.1874 230.07 89.9106 205.807 80.9573C152.374 61.2709 97.1072 40.8833 37.6351 58.3584C30.6257 59.0056 23.3467 59.7607 15.906 60.6237C11.0533 61.163 6.14675 61.7563 1.24017 62.4035C0.754903 62.5114 0.377474 62.5653 0.0539632 62.6193V63.9677C0.485311 63.9137 0.862741 63.8598 1.29409 63.8059Z" fill="#FF65FF"/>
    <path d="M7.33296 72.7046C11.6464 72.1113 15.9599 71.518 20.3273 70.9247L26.9054 70.0078C105.249 44.3346 183.215 80.687 242.418 115.26C246.3 117.201 250.883 117.794 255.843 117.794C259.402 117.794 263.122 117.525 266.95 117.201C273.043 116.716 279.352 116.23 285.876 116.77C292.993 115.691 299.841 113.965 306.257 111.754L305.826 110.459C299.517 112.671 292.723 114.343 285.876 115.421C279.406 114.828 273.043 115.367 266.897 115.799C257.892 116.5 249.427 117.147 243.118 114.019C183.592 79.3925 105.303 42.8783 26.5819 68.6594L20.1116 69.5763C15.7982 70.1696 11.4847 70.7629 7.1712 71.3562C4.85271 71.6798 2.42638 72.0034 0.0539632 72.327V73.6754C2.48029 73.3518 4.96054 73.0282 7.33296 72.7046Z" fill="#FF65FF"/>
    <path d="M285.768 126.748C252.446 122.056 221.659 108.949 191.842 96.2207C138.301 73.4061 87.7254 51.8859 24.2094 75.3478C15.4746 75.5096 7.54863 75.8332 0.0539632 76.4265V77.7748C7.60255 77.1815 15.5286 76.8579 24.3173 76.6961L24.533 76.6422C87.6176 53.2882 137.977 74.7545 191.249 97.4612C221.174 110.19 252.123 123.404 285.66 128.097H285.822L285.984 128.043C290.028 126.802 294.071 125.346 298.331 123.782C301.297 122.703 304.37 121.57 307.713 120.438L307.281 119.143C303.939 120.276 300.865 121.409 297.846 122.487C293.694 124.105 289.704 125.562 285.768 126.748Z" fill="#FF65FF"/>
    <path d="M251.745 139.423C250.074 138.667 248.349 137.858 246.677 137.103C248.349 137.966 250.02 138.775 251.745 139.423Z" fill="#FF65FF"/>
    <path d="M267.436 142.659C274.014 142.659 281.077 140.879 288.518 136.348C290.567 135.539 292.562 134.676 294.611 133.813C300.38 131.386 305.826 129.067 311.11 127.719L310.786 126.424C305.448 127.773 299.948 130.092 294.125 132.573C292.13 133.436 290.135 134.245 287.979 135.108C274.607 143.144 262.691 142.281 252.177 138.074C255.142 139.423 258.108 140.717 261.073 142.011C263.122 142.443 265.225 142.659 267.436 142.659Z" fill="#FF65FF"/>
    <path d="M5.12221 91.2048C14.1805 90.3418 23.3467 89.2092 32.5128 87.8608C107.136 65.3698 181.436 81.1189 236.54 131.009C240.153 132.681 243.658 134.245 247.216 135.863C243.927 134.191 240.746 132.25 237.78 130.254C182.298 79.8244 107.352 63.8596 32.2432 86.5124C23.2388 87.8069 14.0727 88.9395 5.06829 89.8025C3.50465 89.9643 1.83318 90.1261 0.107787 90.2879V91.6902C1.77926 91.5284 3.50465 91.3666 5.12221 91.2048Z" fill="#FF65FF"/>
    <path d="M236.001 130.793C169.196 100.211 93.4408 65.531 13.8032 96.1123C8.95051 96.2202 4.47528 96.382 0.0539632 96.5977V97.9461C4.47528 97.7304 9.05835 97.5686 13.911 97.4607L14.1267 97.4068C93.3329 66.9872 165.53 100.05 235.408 132.033C239.236 133.759 242.903 135.431 246.623 137.157C248.295 137.912 250.02 138.721 251.691 139.476C258.647 142.605 265.495 145.679 272.396 148.591L272.666 148.645C273.259 148.645 273.906 148.645 274.499 148.645C281.454 148.645 287.925 147.621 294.287 145.571C301.674 143.144 309.061 139.153 316.286 133.705L315.477 132.627C308.414 138.02 301.189 141.903 293.91 144.277C287.17 146.488 280.214 147.405 272.881 147.297C268.945 145.625 265.009 143.845 261.073 142.119C258.108 140.825 255.142 139.53 252.177 138.182C250.559 137.427 248.888 136.672 247.27 135.917C243.712 134.299 240.261 132.734 236.594 131.062C236.379 130.955 236.163 130.901 236.001 130.793Z" fill="#FF65FF"/>
    <path d="M271.857 152.583C277.68 152.583 283.773 152.152 290.405 151.235C296.39 150.264 301.782 148.862 306.796 146.974C312.296 144.87 317.364 142.12 322.271 138.614L321.516 137.535C316.717 140.987 311.757 143.63 306.365 145.679C301.404 147.567 296.12 148.97 290.243 149.886C280.646 151.181 272.127 151.504 264.147 150.911L253.902 146.488C171.461 110.891 93.6025 77.2894 7.1712 104.796C4.74487 104.958 2.37246 105.12 0.0539632 105.228V106.576C2.42638 106.415 4.85271 106.307 7.33296 106.199L7.49471 106.145C93.4408 78.7457 171.137 112.293 253.363 147.783L261.99 151.504C263.122 151.774 264.201 152.098 265.333 152.367C267.436 152.475 269.646 152.583 271.857 152.583Z" fill="#FF65FF"/>
    <path d="M1.18625 111.215C0.808822 111.269 0.431393 111.323 0.0539632 111.323V112.671C0.53923 112.617 1.0245 112.563 1.50976 112.509C71.4959 88.2923 131.669 109.327 195.401 131.548C223.384 141.311 252.339 151.451 282.91 157.869H283.126C291.322 156.844 299.409 155.064 307.281 152.529C315.154 149.994 322.54 146.758 329.28 142.929L328.579 141.742C321.947 145.518 314.668 148.754 306.85 151.235C299.14 153.716 291.106 155.496 283.072 156.52C277.087 155.28 271.21 153.824 265.333 152.314C264.201 152.044 263.122 151.774 261.99 151.451C239.182 145.356 217.238 137.751 195.832 130.254C131.885 107.979 71.4959 86.89 1.18625 111.215Z" fill="#FF65FF"/>
    <path d="M4.5292 117.256C95.4358 104.743 175.72 130.74 263.823 163.263L264.039 163.316C266.573 163.478 269.107 163.532 271.749 163.532C278.489 163.532 285.714 163.047 293.532 162.022C300.865 161.105 308.09 159.433 314.992 157.006C322.325 154.471 329.658 151.073 336.721 146.866L336.02 145.734C329.011 149.887 321.786 153.231 314.56 155.766C307.713 158.139 300.596 159.757 293.37 160.674C282.587 162.022 273.043 162.454 264.201 161.914C175.99 129.337 95.5436 103.394 4.36744 115.907C2.91164 116.015 1.50976 116.231 0.0539632 116.393V117.741C1.56368 117.579 3.01948 117.364 4.5292 117.256Z" fill="#FF65FF"/>
    <path d="M6.25459 123.296C77.6426 110.136 137.438 129.768 200.739 150.533C226.565 159.001 253.309 167.793 280.646 173.995H280.807C288.302 173.779 295.258 172.917 302.105 171.352C316.933 167.954 330.628 161.32 343.892 151.181V150.372L343.461 149.832C330.197 160.08 316.555 166.66 301.782 170.058C295.042 171.622 288.194 172.485 280.807 172.701C253.579 166.498 226.889 157.761 201.116 149.293C140.458 129.391 77.6966 108.787 6.03891 122.002C4.04393 122.109 2.04895 122.379 0.0539632 122.649V123.997C2.10287 123.727 4.20569 123.458 6.25459 123.296Z" fill="#FF65FF"/>
    <path d="M292.13 178.256C294.826 178.04 297.468 177.77 300.11 177.447C302.806 177.015 305.556 176.584 308.198 175.991C320.815 173.078 332.569 167.954 343.946 160.457V158.839C332.515 166.498 320.653 171.73 307.875 174.696C300.865 176.314 293.694 177.231 286.038 177.501C275.2 178.256 265.926 178.148 257.622 177.231C165.53 135.162 86.5931 120.815 9.22006 132.141C6.14671 132.411 3.07335 132.681 0 132.95V134.299C3.12727 134.029 6.25454 133.759 9.38181 133.49C86.4852 122.217 165.26 136.51 257.137 178.472L257.353 178.526C259.132 178.741 261.073 178.849 262.96 178.957C265.279 178.849 267.543 178.741 269.808 178.741C278.489 178.957 285.606 178.741 292.13 178.256Z" fill="#FF65FF"/>
    <path d="M49.3894 137.212C105.572 136.619 162.726 139.477 215.35 174.535C223.654 180.037 233.359 181.385 242.957 181.385C247.702 181.385 252.392 181.061 256.922 180.738C261.181 180.468 265.225 180.144 269.053 180.144C269.323 180.144 269.539 180.144 269.808 180.144C278.543 180.198 285.714 180.037 292.238 179.551C310.732 178.203 327.77 173.996 343.946 166.93V165.42C330.089 171.569 315.639 175.506 300.11 177.394C297.468 177.717 294.826 177.987 292.13 178.203C285.606 178.688 278.489 178.904 269.808 178.796C267.597 178.796 265.333 178.85 262.96 179.012C260.965 179.12 258.917 179.228 256.814 179.389C243.334 180.306 228.075 181.385 216.105 173.349C156.687 133.706 91.6075 134.947 28.6847 136.133C22.8076 136.241 16.9304 136.349 10.9994 136.457C7.06336 136.78 3.45083 137.104 0.0539632 137.482V138.83C3.50475 138.506 7.11728 138.129 11.0533 137.805C16.4452 137.751 21.837 137.643 27.2289 137.536C34.6696 137.104 42.0565 137.05 49.3894 137.212Z" fill="#FF65FF"/>
    <path d="M0.754903 141.634C0.53923 141.688 0.269637 141.742 0.0539632 141.796V143.198C0.377474 143.091 0.754903 143.037 1.07841 142.983C5.28406 141.958 9.59753 140.879 13.8571 140.016C89.6665 131.764 157.55 156.736 226.296 185.43C231.957 187.318 237.619 187.911 243.226 187.911C247.863 187.911 252.5 187.533 257.083 187.102C262.96 186.616 269.053 186.077 275.038 186.455C283.018 186.509 290.297 186.185 297.414 185.484C313.86 183.866 329.226 180.036 343.892 173.942V172.485C329.172 178.634 313.806 182.517 297.307 184.135C290.243 184.837 283.018 185.16 275.092 185.106C269.053 184.729 262.907 185.268 256.976 185.807C247.055 186.67 236.756 187.533 226.781 184.243C168.873 160.08 111.503 138.614 49.4433 137.319C42.1104 137.158 34.7235 137.212 27.2289 137.697C22.7536 137.967 18.2245 138.344 13.6953 138.83C9.32794 139.531 4.96054 140.61 0.754903 141.634Z" fill="#FF65FF"/>
    <path d="M220.796 190.716C230.07 195.354 238.374 197.026 246.354 197.026C256.005 197.026 265.225 194.599 275.146 192.01L278.866 191.039C286.792 190.931 294.503 190.446 301.782 189.637C316.663 188.019 330.628 184.999 343.892 180.522V179.12C330.574 183.65 316.609 186.671 301.62 188.289C294.341 189.098 286.685 189.529 278.651 189.691L274.769 190.716C256.814 195.408 241.285 199.507 221.335 189.529C152.535 155.118 80.0151 141.581 0.0539632 148.269V149.617C79.7994 142.929 152.158 156.413 220.796 190.716Z" fill="#FF65FF"/>
    <path d="M226.727 194.923C149.947 167.47 74.785 143.738 0.0539632 152.152V153.5C71.9812 145.302 144.502 167.2 218.532 193.413C221.929 194.114 225.379 194.815 228.776 195.462C228.075 195.3 227.428 195.138 226.727 194.923Z" fill="#FF65FF"/>
    <path d="M274.229 195.462C268.73 195.246 263.068 195.786 257.569 196.325C251.314 196.918 244.898 197.566 238.481 197.134C241.555 197.62 244.628 198.051 247.648 198.429C250.991 198.267 254.387 197.997 257.676 197.674C263.392 197.134 268.784 196.595 274.122 196.811C276.278 196.865 278.273 196.811 280.376 196.811C280.43 196.811 280.484 196.811 280.538 196.811C288.518 196.433 296.498 195.84 304.262 195.031C313.482 194.114 322.648 192.873 331.707 191.417C335.858 190.446 339.902 189.368 343.892 188.127V186.725C329.765 191.093 314.884 193.79 298.978 194.923C291.106 195.462 283.018 195.678 274.229 195.462Z" fill="#FF65FF"/>
    <path d="M238.266 198.428C234.977 197.889 231.688 197.349 228.453 196.756C231.742 197.673 235.031 198.212 238.266 198.428Z" fill="#FF65FF"/>
    <path d="M280.538 196.81C280.484 196.81 280.43 196.81 280.376 196.81C272.073 197.781 262.206 198.805 252.5 199.075C250.883 198.913 249.265 198.643 247.648 198.428C244.574 198.05 241.555 197.619 238.481 197.133C235.246 196.594 232.011 196.055 228.722 195.461C225.325 194.814 221.875 194.113 218.478 193.412C198.528 189.205 178.578 183.649 159.006 178.256C107.352 163.855 53.9185 149.077 0.0539632 157.868V159.217C53.7028 150.425 107.028 165.204 158.682 179.55C181.597 185.915 205.052 192.441 228.453 196.81C231.742 197.403 235.031 197.942 238.266 198.482C243.011 199.237 247.755 199.938 252.446 200.477C262.367 200.208 272.288 199.183 280.646 198.212C288.626 197.834 296.606 197.241 304.37 196.432C317.688 195.138 330.844 193.196 343.892 190.769V189.313C339.848 190.068 335.75 190.769 331.707 191.416C322.594 192.872 313.428 194.113 304.262 195.03C296.498 195.785 288.518 196.378 280.538 196.81Z" fill="#FF65FF"/>
    <path d="M224.031 210.132C222.845 209.917 221.659 209.701 220.473 209.485C221.659 209.701 222.791 209.971 224.031 210.132Z" fill="#FF65FF"/>
    <path d="M265.387 208.028C273.367 207.812 280.753 207.489 287.925 206.949C307.012 205.601 325.775 202.904 343.892 198.967V197.565C325.721 201.502 306.904 204.253 287.817 205.601C280.646 206.14 273.313 206.464 265.225 206.68C252.069 209.97 237.026 210.617 223.869 208.675C228.992 209.538 234.114 210.347 239.236 211.102C248.079 211.156 257.137 210.132 265.387 208.028Z" fill="#FF65FF"/>
    <path d="M210.552 205.71C206.4 204.092 202.248 202.527 198.097 200.909C133.448 175.829 66.6972 150.048 0.0539632 164.989V166.391C66.4276 151.451 133.125 177.178 197.611 202.15C200.631 203.337 203.65 204.469 206.616 205.656C210.713 206.411 214.811 207.166 218.909 207.867C216.051 207.274 213.194 206.573 210.552 205.71Z" fill="#FF65FF"/>
    <path d="M159.653 197.62C179.549 201.719 199.93 205.872 220.473 209.485C221.659 209.701 222.845 209.917 224.031 210.132C231.58 211.427 239.128 212.614 246.677 213.692C254.333 213.8 260.965 213.908 267.49 213.908C269.538 213.908 271.533 213.908 273.582 213.854C298.978 213.692 322.109 210.996 343.892 205.548V204.146C322.055 209.593 298.978 212.29 273.582 212.452C265.063 212.56 256.706 212.398 246.785 212.236C244.251 211.858 241.717 211.427 239.182 211.049C234.06 210.24 228.938 209.485 223.816 208.622C222.198 208.353 220.58 208.029 218.909 207.759C214.811 207.058 210.713 206.303 206.616 205.548C190.871 202.582 175.235 199.399 159.868 196.217C108.376 185.592 55.2125 174.643 0 174.535V175.992C19.7342 176.045 39.1987 177.394 58.4476 179.713C83.5736 181.655 108.7 185.862 133.772 192.334C142.453 194.114 151.08 195.84 159.653 197.62Z" fill="#FF65FF"/>
    <path d="M133.826 192.387C108.808 185.915 83.6815 181.708 58.5016 179.766C39.037 178.256 19.5185 178.094 0.0539632 179.335V180.683C68.9079 176.314 138.139 189.205 206.13 218.977C207.802 219.247 209.527 219.516 211.253 219.786C185.587 208.244 159.76 199.075 133.826 192.387Z" fill="#FF65FF"/>
    <path d="M239.56 223.509C231.149 224.425 223.061 224.21 216.051 221.89C215.944 221.837 215.836 221.783 215.728 221.729C214.056 221.513 212.385 221.189 210.713 220.973C212.331 221.674 213.948 222.375 215.566 223.13C220.365 224.748 225.649 225.396 231.095 225.396C236.702 225.396 242.525 224.694 248.402 223.562C247.108 223.562 245.76 223.67 244.466 223.67C242.795 223.67 241.177 223.562 239.56 223.509Z" fill="#FF65FF"/>
    <path d="M255.52 222.052C260.966 220.758 266.411 219.194 271.641 217.522C278.974 217.414 286.253 217.144 293.371 216.821C310.409 216.012 327.339 214.501 343.946 212.344V210.996C327.339 213.153 310.355 214.663 293.317 215.472C286.199 215.796 278.866 216.066 271.534 216.173L271.318 216.227C263.715 218.6 255.681 220.812 247.755 222.322C250.182 222.268 252.662 222.214 255.142 222.052C255.304 222.052 255.412 222.052 255.52 222.052Z" fill="#FF65FF"/>
    <path d="M135.228 202.473C159.76 209.755 184.833 217.144 210.66 220.973C212.331 221.243 214.003 221.513 215.674 221.728C223.546 222.753 231.472 223.293 239.506 223.508C241.123 223.562 242.741 223.67 244.412 223.67C245.707 223.67 247.054 223.562 248.349 223.562C250.613 223.508 252.878 223.508 255.142 223.4C262.853 223.454 269.754 223.454 276.71 223.4C299.571 223.185 322.055 221.836 343.892 219.463V218.115C322.055 220.488 299.517 221.836 276.71 222.052C269.916 222.106 263.068 222.106 255.52 222.106C255.358 222.106 255.25 222.106 255.142 222.106C252.662 222.268 250.236 222.322 247.755 222.376C235.408 222.591 223.223 221.621 211.199 219.841C209.473 219.571 207.802 219.301 206.076 219.032C181.975 215.04 158.52 208.083 135.497 201.233C89.7743 187.533 46.316 174.643 0.0539632 184.135V185.538C46.1003 175.991 89.4508 188.882 135.228 202.473Z" fill="#FF65FF"/>
    <path d="M10.0289 190.445C21.4596 187.856 32.2433 185.375 43.027 185.375C66.5894 190.823 89.8821 198.212 112.42 205.331C156.903 219.408 202.895 233.971 252.339 234.025C258.701 234.241 264.955 234.349 271.048 234.349C273.421 234.349 275.739 234.348 278.004 234.295C301.458 233.971 323.08 231.76 343.892 227.822V226.528C323.026 230.465 301.404 232.677 278.004 233C269.808 233.108 261.181 233 252.392 232.73C203.111 232.677 157.226 218.114 112.851 204.091C90.2596 196.917 66.9668 189.528 43.1887 184.081C32.1355 184.081 21.2439 186.562 9.70537 189.151C6.5781 189.852 3.34299 190.553 0.0539632 191.254V192.603C3.39691 191.955 6.73985 191.2 10.0289 190.445Z" fill="#FF65FF"/>
    <path d="M43.0809 190.823C71.4959 195.191 98.5091 205.008 124.552 214.554C159.707 227.391 193.136 239.58 229.747 239.526C234.114 239.526 238.535 239.365 243.011 238.987C253.848 238.933 262.745 238.825 270.994 238.609C295.204 238.016 319.844 236.614 343.892 235.158V233.809C319.844 235.265 295.15 236.722 270.94 237.261C262.691 237.477 253.848 237.585 242.903 237.639C201.224 241.036 164.182 227.553 124.983 213.26C98.8326 203.713 71.8194 193.897 43.1348 189.474C29.4934 189.474 15.7981 193.25 0 199.075V200.531C15.906 194.598 29.6012 190.823 43.0809 190.823Z" fill="#FF65FF"/>
    <path d="M129.512 228.038C163.535 238.07 195.832 247.617 229.046 247.617C230.933 247.617 232.874 247.563 234.815 247.509C243.873 247.509 251.422 247.509 258.485 247.347C280.538 246.97 303.777 245.675 329.604 243.41C334.726 243.302 339.417 243.248 343.946 243.194V241.846C339.417 241.9 334.672 241.954 329.55 242.061C303.777 244.327 280.538 245.621 258.485 245.999C251.368 246.107 243.873 246.16 234.815 246.16C199.768 247.293 165.853 237.315 129.944 226.744C88.5342 214.5 45.7768 201.987 0.0539632 207.327V208.675C45.6151 203.336 88.2646 215.849 129.512 228.038Z" fill="#FF65FF"/>
    <path d="M140.026 243.141C160.515 251.878 181.705 258.998 204.351 258.998C211.091 258.998 217.938 258.351 224.894 256.948C232.227 257.326 239.506 257.541 246.569 257.595C273.528 257.811 301.782 256.031 332.731 251.986C336.613 251.824 340.279 251.77 343.892 251.716V250.368C340.279 250.368 336.559 250.476 332.623 250.584C301.728 254.629 273.582 256.463 246.623 256.193C239.56 256.139 232.281 255.923 224.84 255.546C186.989 263.097 155.123 248.588 121.424 233.271C117.704 231.599 113.93 229.873 110.155 228.201C112.528 229.387 114.9 230.574 117.327 231.814C124.659 235.644 132.262 239.473 140.026 243.141Z" fill="#FF65FF"/>
    <path d="M21.9449 209.161C13.3718 210.779 5.7154 213.044 0.0539632 214.986V216.442C5.7154 214.5 13.3718 212.181 22.1605 210.509C49.1198 207.327 73.5988 214.5 97.0533 224.101C100.45 225.072 103.847 225.989 107.244 226.959C80.716 215.363 53.0558 205.493 21.9449 209.161Z" fill="#FF65FF"/>
    <path d="M106.651 228.255C107.729 228.74 108.754 229.172 109.832 229.657C109.077 229.279 108.322 228.902 107.621 228.524C107.298 228.416 106.974 228.309 106.651 228.255Z" fill="#FF65FF"/>
    <path d="M0.0539632 223.724V225.234C34.7775 208.029 71.3342 218.169 106.651 228.201C106.974 228.309 107.298 228.363 107.621 228.471C108.376 228.848 109.131 229.226 109.832 229.603C112.097 230.736 114.361 231.922 116.734 233.055C147.09 248.48 181.436 265.902 216.698 262.288C224.948 263.475 232.389 264.391 239.452 265.147C253.147 266.603 266.088 267.304 278.327 267.304C296.66 267.304 313.428 265.686 329.065 262.396C334.079 262.018 339.093 261.587 344 261.155V259.807C339.039 260.238 333.971 260.67 328.903 261.047C302.914 266.441 273.744 267.358 239.614 263.744C232.55 262.989 225.164 262.072 216.752 260.886C190.278 263.582 164.29 254.306 140.134 243.033C132.37 239.365 124.767 235.536 117.381 231.814C115.008 230.628 112.636 229.387 110.209 228.201C109.508 227.877 108.808 227.5 108.161 227.176C107.891 227.068 107.567 227.014 107.298 226.906C103.901 225.936 100.504 224.965 97.1072 224.048C64.7561 215.148 31.7041 208.299 0.0539632 223.724Z" fill="#FF65FF"/>
    <path d="M17.793 225.234C39.63 222.861 59.8495 226.69 79.7454 233.109C82.9805 234.133 86.1617 235.212 89.3429 236.345C98.9943 239.797 108.646 243.734 118.459 247.725C147.79 259.699 178.147 272.104 212.277 272.482C219.286 273.776 225.757 274.747 232.119 275.556C243.873 277.066 255.088 277.767 265.872 277.767C282.317 277.767 297.684 276.041 312.296 272.535L319.305 271.996C325.775 271.457 332.246 270.971 338.608 270.486C340.441 270.324 342.167 270.216 343.892 270.108V268.76C342.113 268.868 340.387 268.976 338.5 269.138C332.138 269.623 325.668 270.108 319.197 270.648L312.08 271.241C287.979 276.958 261.882 277.983 232.335 274.207C226.026 273.398 219.556 272.428 212.439 271.133C178.416 270.756 148.222 258.404 118.998 246.485C85.5686 232.839 53.9723 219.948 17.6313 223.886C11.4846 224.964 5.60747 226.744 0.107787 229.279V230.789C5.60747 228.255 11.5385 226.367 17.793 225.234Z" fill="#FF65FF"/>
    <path d="M22.1066 228.201C14.2884 229.765 6.90161 232.516 0.0539632 236.399V237.909C6.95553 233.918 14.4502 231.059 22.3762 229.495C63.6238 222.538 99.8031 240.929 134.796 258.782C158.359 270.756 182.676 283.161 207.964 287.314C213.679 288.339 219.502 289.202 225.325 289.741C232.227 290.442 239.182 290.766 246.192 290.766C263.284 290.766 280.754 288.77 298.277 284.779C306.904 283.97 316.016 282.999 326.854 281.651C332.515 280.949 338.069 280.248 343.946 279.493V278.145C338.015 278.9 332.407 279.655 326.638 280.356C315.801 281.705 306.742 282.675 298.007 283.484C273.367 289.094 248.942 290.766 225.433 288.447C219.664 287.853 213.895 287.044 208.179 286.019C183.107 281.92 158.844 269.569 135.389 257.596C120.346 249.937 105.087 242.17 89.3429 236.345C86.1617 235.158 82.9805 234.08 79.7454 233.109C61.467 227.445 42.4339 224.749 22.1066 228.201Z" fill="#FF65FF"/>
    <path d="M24.1555 234.457C71.7116 229.549 114.253 251.932 155.393 273.56C163.319 277.713 171.569 282.082 179.764 286.181C187.69 288.716 195.239 290.442 202.68 291.521C212.493 293.84 222.252 295.566 231.688 296.752C241.555 297.993 251.422 298.586 260.965 298.586C261.181 298.586 261.451 298.586 261.666 298.586C265.009 298.694 268.406 298.748 271.749 298.748C276.278 298.748 280.807 298.64 285.283 298.478C304.532 297.615 324.212 294.865 343.892 290.388V288.986C324.158 293.516 304.478 296.267 285.229 297.13C277.465 297.454 269.539 297.508 261.666 297.238C251.853 297.238 241.878 296.645 231.85 295.404C222.468 294.217 212.762 292.492 202.949 290.172C195.508 289.094 188.068 287.368 180.303 284.887C172.162 280.842 163.966 276.527 156.04 272.32C114.685 250.584 71.9812 228.201 23.9398 233.109C15.3668 234.781 7.33296 238.071 0.0539632 242.817V244.435C0.215719 244.327 0.323556 244.219 0.485311 244.112C7.65647 239.419 15.6364 236.129 24.1555 234.457Z" fill="#FF65FF"/>
    <path d="M5.17622 254.144C13.0483 249.883 21.5674 246.97 30.4101 245.514C77.5887 240.768 113.391 261.802 151.349 283.97C162.349 290.388 173.725 297.076 185.426 303.063C192.112 305.382 199.067 307.324 206.076 308.888C221.174 312.232 236.972 313.904 253.633 313.904C281.239 313.904 311.164 309.319 343.946 300.097V298.694C291.375 313.526 246.246 316.439 206.346 307.594C199.391 306.029 192.489 304.088 185.911 301.876C174.318 295.944 162.996 289.31 151.996 282.891C113.876 260.562 77.8044 239.473 30.1944 244.22C21.19 245.73 12.5091 248.642 4.5292 253.011C3.01948 253.766 1.50976 254.737 0.0539632 255.654V257.218C1.72544 256.139 3.45083 255.114 5.17622 254.144Z" fill="#FF65FF"/>
    <path d="M196.695 312.771C189.685 310.506 182.406 307.647 175.181 304.465L169.735 301.013C125.091 272.805 78.8828 243.626 25.6113 249.721C17.3079 251.554 9.54361 254.898 2.53421 259.591C1.72544 260.184 0.916659 260.885 0.0539632 261.479V263.151C1.13233 262.342 2.2107 261.479 3.34299 260.723C10.1906 256.085 17.8471 252.849 25.8809 251.069C78.5593 245.082 124.552 274.099 169.034 302.2L174.534 305.652C181.921 308.942 189.2 311.746 196.263 314.066C217.453 321.023 239.614 324.475 262.367 324.475C289.003 324.475 316.394 319.675 343.892 310.182V308.726C293.155 326.363 242.525 327.819 196.695 312.771Z" fill="#FF65FF"/>
    <path d="M6.30851 270.971C13.3179 266.98 20.9743 264.229 29.0082 262.773C69.1775 256.57 102.229 275.609 134.257 294.001C139.002 296.752 143.908 299.557 148.653 302.199C155.016 306.137 161.001 310.02 166.77 313.742L169.088 315.252C177.338 319.243 185.587 322.641 193.729 325.338C214.865 332.349 236.379 335.208 257.73 335.208C287.17 335.208 316.286 329.76 343.946 322.425V321.077C296.39 333.752 244.251 340.709 194.16 324.097C186.073 321.454 177.877 318.056 169.735 314.119L167.471 312.663C161.702 308.941 155.717 305.058 149.354 301.067C144.609 298.424 139.703 295.619 134.904 292.869C102.715 274.369 69.447 255.168 28.7925 261.478C20.5969 262.988 12.7787 265.793 5.60757 269.838C3.72042 270.917 1.88719 272.104 0.0539632 273.344V275.016C2.10287 273.506 4.15177 272.157 6.30851 270.971Z" fill="#FF65FF"/>
    <path d="M290.567 344H299.895C314.345 341.735 329.065 338.229 343.946 333.59V332.188C325.883 337.797 307.982 341.789 290.567 344Z" fill="#FF65FF"/>
    <path d="M6.20067 279.277C12.7248 275.286 19.896 272.427 27.5524 270.755C34.4539 270.054 41.6251 269.838 48.7963 270.216C55.6978 270.54 62.7612 271.349 69.8245 272.697C91.8771 276.311 110.695 287.961 130.537 300.258C135.066 303.063 139.811 306.029 144.609 308.834C151.241 313.85 157.496 319.081 163.157 324.421L163.319 324.529C171.784 328.898 180.303 332.619 188.553 335.586C198.69 339.253 209.258 342.004 220.149 343.946H228.992C215.081 342.058 201.655 338.876 188.984 334.291C180.789 331.325 172.377 327.603 163.966 323.288C158.251 317.949 151.996 312.663 145.31 307.647C140.458 304.789 135.767 301.822 131.238 299.017C111.234 286.612 92.3624 274.908 70.0401 271.295C62.9229 269.946 55.8057 269.137 48.8502 268.814C41.6251 268.436 34.4 268.652 27.3367 269.353C19.4646 271.079 12.1317 273.991 5.49973 278.091C3.61258 279.277 1.83327 280.518 0.0539632 281.866V283.592C2.04895 282.028 4.09785 280.572 6.20067 279.277Z" fill="#FF65FF"/>
    <path d="M335.049 344H339.471C340.981 343.514 342.436 343.137 343.892 342.651V341.195C340.981 342.112 338.015 343.083 335.049 344Z" fill="#FF65FF"/>
    <path d="M12.1856 286.828C19.5185 282.891 27.3367 280.14 35.3167 278.738C61.7367 273.398 83.0884 284.347 105.68 295.889C112.474 299.395 119.537 303.009 126.547 305.975C132.855 310.02 139.379 314.497 147.144 320.052C152.859 324.151 158.359 328.25 163.643 332.134L166.123 333.967C173.24 337.851 180.303 341.087 187.151 343.892H190.602C182.892 340.871 174.858 337.15 166.878 332.835L164.451 331.055C159.167 327.118 153.668 323.073 147.952 318.92C140.188 313.31 133.61 308.834 127.194 304.735C120.13 301.714 113.067 298.101 106.273 294.595C84.4364 283.43 61.8985 271.888 35.0471 277.335C26.9054 278.738 18.9793 281.542 11.4847 285.534C7.65647 287.745 3.82826 290.226 0.0539632 293.031V294.757C3.99001 291.682 8.0339 289.039 12.1856 286.828Z" fill="#FF65FF"/>
    <path d="M28.5229 283.862C35.2088 282.514 42.5956 282.352 50.6295 283.485C57.7467 282.999 65.2953 284.132 73.0057 286.882C81.0395 289.741 89.289 294.433 97.5925 300.798C104.818 304.681 112.528 309.266 121.047 314.713C131.238 321.239 140.943 327.927 150.271 334.4C154.908 337.582 159.383 340.71 163.643 343.569C163.858 343.676 164.074 343.784 164.29 343.892H167.093C166.177 343.407 165.26 342.921 164.397 342.436C160.138 339.577 155.663 336.503 151.08 333.267C141.698 326.795 131.992 320.107 121.802 313.527C113.229 308.025 105.519 303.441 98.3473 299.611C89.99 293.193 81.6326 288.501 73.4909 285.534C65.6188 282.729 57.9085 281.543 50.7373 282.082C42.7035 280.95 35.1549 281.057 28.3072 282.46C17.5235 284.725 8.08782 290.173 0.0539632 298.694V300.636C8.14174 291.737 17.6314 286.073 28.5229 283.862Z" fill="#FF65FF"/>
    <path d="M152.589 343.999H154.746C124.606 320.16 52.8402 272.966 0.0539632 312.824V314.496C51.3844 274.8 121.64 319.836 152.589 343.999Z" fill="#FF65FF"/>
    <path d="M51.5461 305.328C50.7373 305.328 49.9286 305.274 49.1198 305.274C30.8953 305.274 14.4502 311.046 0.0539632 322.372V324.044C14.4502 312.448 30.8953 306.569 49.1198 306.569C49.9286 306.569 50.6834 306.569 51.4922 306.623C81.363 307.432 112.42 323.99 137.492 343.946H139.649C114.199 323.397 82.3336 306.137 51.5461 305.328Z" fill="#FF65FF"/>
</svg>
