<svg width="172" height="80" viewBox="0 0 172 80" fill="none" xmlns="http://www.w3.org/2000/svg">
    <path d="M152.004 80H0V15.6605H128.718L138.49 0L142.618 2.53002L131.395 20.4644H4.8378V75.1962H147.166V55.4684L172 58.1906L171.484 62.9624L152.004 60.8167V80Z" fill="#00F0FF"/>
    <path d="M25.8983 33.4027H21.1895C21.0928 33.0825 20.8992 32.8583 20.5767 32.7302C20.2542 32.6021 19.6414 32.5701 18.8029 32.5701H17.7708C16.5775 32.5701 15.8357 32.7302 15.4809 33.1145C15.1261 33.4668 14.9649 34.2354 14.9649 35.3883V36.5092C14.9649 37.6621 15.1261 38.4307 15.4809 38.783C15.8357 39.1353 16.5775 39.2954 17.7708 39.2954H18.8351C19.7059 39.2954 20.2865 39.2314 20.609 39.1353C20.9315 39.0072 21.1573 38.783 21.2218 38.4628H25.9306C25.9306 40.1601 25.3823 41.4412 24.2857 42.3058C23.1891 43.1705 21.6088 43.5869 19.5769 43.5869H17.4483C14.7714 43.5548 12.9652 43.0424 11.9654 42.0496C10.9656 41.0568 10.4496 39.2314 10.4173 36.6053V35.2602C10.4496 32.6021 10.9656 30.8086 11.9654 29.8159C12.9652 28.8231 14.8036 28.3106 17.4483 28.2786H19.5769C21.6088 28.2786 23.1569 28.695 24.2857 29.5596C25.4145 30.4243 25.8983 31.7054 25.8983 33.4027Z" fill="#00F0FF"/>
    <path d="M47.5394 28.6309V43.2346H42.9919V32.8903H39.2829L38.4766 38.5909C38.2508 40.2562 37.5735 41.4412 36.5415 42.1457C35.4772 42.8503 33.8968 43.2346 31.7682 43.2346H31.4457V38.9432C32.4777 38.9432 33.155 38.8151 33.4775 38.5588C33.8 38.3026 34.0258 37.7582 34.1548 36.9576L35.3481 28.6629H47.5394V28.6309Z" fill="#00F0FF"/>
    <path d="M64.6652 40.8006H58.6018L57.6665 43.2346H52.8932L58.8276 28.6309H64.4717L70.4061 43.2346H65.6005L64.6652 40.8006ZM63.0204 36.5412L61.6335 32.9864L60.2467 36.5412H63.0204Z" fill="#00F0FF"/>
    <path d="M91.3054 38.8471C91.3054 40.2562 90.8216 41.3451 89.854 42.1137C88.8865 42.8823 87.4674 43.2346 85.629 43.2346H75.7922V28.6309H85.4033C87.2739 28.6309 88.6607 28.9832 89.6283 29.7198C90.5958 30.4564 91.0796 31.5132 91.0796 32.9544C91.0796 34.2034 90.6926 35.1641 89.9185 35.8046C90.8539 36.4772 91.3054 37.502 91.3054 38.8471ZM80.3397 32.8583V34.0753H85.629C86.2741 34.0753 86.6289 33.8831 86.6289 33.4668C86.6289 33.0504 86.3063 32.8583 85.629 32.8583H80.3397ZM86.8224 38.3667C86.8224 37.9504 86.4998 37.7582 85.8225 37.7582H80.3074V38.9752H85.8225C86.4998 38.9752 86.8224 38.751 86.8224 38.3667Z" fill="#00F0FF"/>
    <path d="M112.43 28.6309V43.2346H107.883V38.0144H101.787V43.2346H97.2398V28.6309H101.787V33.755H107.883V28.6309H112.43Z" fill="#00F0FF"/>
    <path d="M134.523 38.3347C134.523 41.6013 132.588 43.2026 128.718 43.2026H119.01V28.6309H123.557V33.4668H128.718C132.62 33.4668 134.523 35.1001 134.523 38.3347ZM130.072 38.3347C130.072 37.9504 129.75 37.7582 129.072 37.7582H123.557V38.9432H129.072C129.75 38.9111 130.072 38.719 130.072 38.3347ZM140.554 28.6309V43.2346H136.007V28.6309H140.554Z" fill="#00F0FF"/>
    <path d="M162.486 43.2346H157.938V35.3563L151.068 43.2346H147.134V28.6309H151.681V35.7086L157.874 28.6309H162.486V43.2346ZM157.745 26.7734C157.067 27.3819 156.1 27.7022 154.842 27.7022C153.584 27.7022 152.649 27.4139 151.939 26.7734C151.23 26.1329 150.939 25.3002 150.939 24.2114V24.0192H153.132C153.132 24.4996 153.294 24.8839 153.616 25.1721C153.907 25.4604 154.326 25.6205 154.842 25.6205C155.358 25.6205 155.777 25.4924 156.1 25.1721C156.422 24.8839 156.583 24.4996 156.583 24.0192H158.777V24.2434C158.777 25.3002 158.422 26.1649 157.745 26.7734Z" fill="#00F0FF"/>
    <path d="M28.543 61.2328V67.6699H24.189V65.4922H15.1907V67.6699H10.8366V61.3609H11.0946C11.9009 61.3609 12.4492 61.2969 12.804 61.1687C13.1265 61.0086 13.3845 60.7844 13.4813 60.4642C13.6103 60.1439 13.7393 59.5675 13.8683 58.7348L14.9649 50.8885H26.8981V61.2328H28.543ZM22.3829 61.2328V55.1479H18.8996L18.2868 59.5354C18.1901 60.208 18.0611 60.7844 17.8998 61.2328H22.3829Z" fill="#00F0FF"/>
    <path d="M49.8293 65.4922H45.2818V57.6139L38.4121 65.4922H34.4774V50.8885H39.0249V57.9662L45.2173 50.8885H49.8293V65.4922Z" fill="#00F0FF"/>
    <path d="M71.5027 60.9446C71.5027 62.5458 70.9221 63.7308 69.7611 64.5955C68.6 65.4602 66.9229 65.8445 64.762 65.8445H62.8914C60.5692 65.8445 58.8599 65.4282 57.6988 64.5955C56.5377 63.7628 55.9572 62.4818 55.9572 60.7204H60.6982C60.795 61.0406 60.9885 61.2648 61.311 61.3929C61.6336 61.521 62.2463 61.5531 63.0849 61.5531H65.536C66.2456 61.5531 66.6004 61.3289 66.6004 60.8485C66.6004 60.3681 66.2456 60.1439 65.536 60.1439H61.6013V56.2688H65.3425C66.0521 56.2688 66.4068 56.0446 66.4068 55.5643C66.4068 55.0839 66.0521 54.8597 65.3425 54.8597H63.1171C62.2786 54.8597 61.6658 54.9238 61.3433 55.0198C61.0208 55.1479 60.795 55.3721 60.7305 55.6924H55.9894C55.9894 53.931 56.57 52.6179 57.7311 51.8173C58.8921 50.9846 60.6337 50.5683 62.9236 50.5683H64.633C69.0838 50.5683 71.3092 52.2016 71.3092 55.4362C71.3092 56.6211 71.0189 57.5178 70.4383 58.0943C71.1479 58.6387 71.5027 59.5995 71.5027 60.9446Z" fill="#00F0FF"/>
    <path d="M87.8544 63.0583H81.7911L80.8558 65.4922H76.0825L82.0168 50.8885H87.6609L93.5953 65.4922H88.7897L87.8544 63.0583ZM86.2096 58.7989L84.8227 55.244L83.4359 58.7989H86.2096Z" fill="#00F0FF"/>
    <path d="M114.301 65.4922H109.754V57.6139L102.884 65.4922H98.9491V50.8885H103.497V57.9662L109.689 50.8885H114.301V65.4922ZM109.56 49.031C108.883 49.6395 107.915 49.9598 106.657 49.9598C105.4 49.9598 104.464 49.6716 103.755 49.031C103.045 48.3905 102.723 47.5579 102.723 46.469V46.2448H104.916C104.916 46.7252 105.077 47.1095 105.4 47.3977C105.722 47.686 106.141 47.8461 106.657 47.8461C107.173 47.8461 107.593 47.718 107.915 47.3977C108.238 47.1095 108.399 46.7252 108.399 46.2448H110.592V46.469C110.592 47.5899 110.237 48.4226 109.56 49.031Z" fill="#00F0FF"/>
    <path d="M136.071 50.8885V65.4922H131.524V60.272H125.46V65.4922H120.913V50.8885H125.46V56.0126H131.556V50.8885H136.071Z" fill="#00F0FF"/>
</svg>
