<svg version="1.1" fill="#00F0FF" xmlns="http://www.w3.org/2000/svg" xmlns:xlink="http://www.w3.org/1999/xlink" x="0px" y="0px"
	 viewBox="0 0 50 50" style="enable-background:new 0 0 50 50;" xml:space="preserve">
<path d="M25,0C11.19,0,0,11.19,0,25s11.19,25,25,25s25-11.19,25-25S38.81,0,25,0z M37.78,16.58c-0.29,3.05-1.42,8.9-1.86,12.12
	c-0.4,2.38-0.78,4.77-1.16,7.15c-0.05,0.32-0.13,0.63-0.28,0.93c-0.84,1.78-3.01,0.7-4.23-0.07c-2.11-1.41-4.26-2.77-6.32-4.26
	c-0.59-0.47-1.27-0.86-1.74-1.46c-0.56-0.72-0.09-1.54,0.53-2.03c0.59-0.56,1.21-1.08,1.77-1.66c0,0,3.87-3.63,5.75-5.5
	c0.61-0.58,1.24-2.01-0.23-1.35c-0.51,0.23-0.99,0.52-1.46,0.83C26.21,22.86,21.54,26,21.54,26s-2.03,1.31-3.01,2.01
	c-1.11,0.83-2.54,0.69-3.79,0.31c-1.46-0.45-2.92-0.92-4.37-1.41c-0.56-0.15-0.94-0.8-0.58-1.31c0.34-0.47,0.9-0.71,1.41-0.94
	c1.63-0.68,4.89-2.03,4.89-2.03l16.82-6.95c0,0,2.39-1.23,3.73-1.2c0.67,0.03,1.08,0.43,1.13,1.1C37.8,15.91,37.8,16.33,37.78,16.58
	z"/>
</svg>
